<?xml version="1.0" encoding="UTF-8" standalone="no"?>
<!DOCTYPE svg PUBLIC "-//W3C//DTD SVG 1.1//EN"
 "http://www.w3.org/Graphics/SVG/1.1/DTD/svg11.dtd">
<!-- Generated by graphviz version 2.26.3 (20100126.1600)
 -->
<!-- Title: Classes Pages: 1 -->
<svg width="744pt" height="416pt"
 viewBox="0.00 0.00 744.00 416.00" xmlns="http://www.w3.org/2000/svg" xmlns:xlink="http://www.w3.org/1999/xlink">
<g id="graph1" class="graph" transform="scale(1 1) rotate(0) translate(4 412)">
<title>Classes</title>
<polygon fill="white" stroke="white" points="-4,5 -4,-412 741,-412 741,5 -4,5"/>
<!-- Parser -->
<g id="node1" class="node"><title>Parser</title>
<ellipse fill="none" stroke="black" cx="209" cy="-315" rx="41.9273" ry="18.3848"/>
<text text-anchor="middle" x="209" y="-311.4" font-family="Times Roman,serif" font-size="14.00">Parser</text>
</g>
<!-- Lexer -->
<g id="node3" class="node"><title>Lexer</title>
<ellipse fill="none" stroke="black" cx="39" cy="-241" rx="38.8909" ry="18.3848"/>
<text text-anchor="middle" x="39" y="-237.4" font-family="Times Roman,serif" font-size="14.00">Lexer</text>
</g>
<!-- Parser&#45;&gt;Lexer -->
<g id="edge2" class="edge"><title>Parser&#45;&gt;Lexer</title>
<path fill="none" stroke="black" d="M178.999,-301.941C150.701,-289.623 108.152,-271.101 77.3909,-257.711"/>
<polygon fill="black" stroke="black" points="78.4169,-254.341 67.851,-253.559 75.623,-260.759 78.4169,-254.341"/>
</g>
<!-- CircleOfFifths -->
<g id="node6" class="node"><title>CircleOfFifths</title>
<ellipse fill="none" stroke="black" cx="172" cy="-241" rx="75.8684" ry="18.3848"/>
<text text-anchor="middle" x="172" y="-237.4" font-family="Times Roman,serif" font-size="14.00">CircleOfFifths</text>
</g>
<!-- Parser&#45;&gt;CircleOfFifths -->
<g id="edge5" class="edge"><title>Parser&#45;&gt;CircleOfFifths</title>
<path fill="none" stroke="black" d="M199.854,-296.708C195.617,-288.233 190.491,-277.982 185.798,-268.596"/>
<polygon fill="black" stroke="black" points="188.901,-266.975 181.298,-259.596 182.64,-270.105 188.901,-266.975"/>
</g>
<!-- Piece -->
<g id="node8" class="node"><title>Piece</title>
<ellipse fill="none" stroke="black" cx="303" cy="-241" rx="36.977" ry="18.3848"/>
<text text-anchor="middle" x="303" y="-237.4" font-family="Times Roman,serif" font-size="14.00">Piece</text>
</g>
<!-- Parser&#45;&gt;Piece -->
<g id="edge7" class="edge"><title>Parser&#45;&gt;Piece</title>
<path fill="none" stroke="black" d="M229.862,-298.577C243.155,-288.112 260.538,-274.428 275.022,-263.025"/>
<polygon fill="black" stroke="black" points="277.47,-265.553 283.162,-256.617 273.14,-260.053 277.47,-265.553"/>
</g>
<!-- Token -->
<g id="node4" class="node"><title>Token</title>
<ellipse fill="none" stroke="black" cx="39" cy="-167" rx="39.0967" ry="18.3848"/>
<text text-anchor="middle" x="39" y="-163.4" font-family="Times Roman,serif" font-size="14.00">Token</text>
</g>
<!-- Lexer&#45;&gt;Token -->
<g id="edge3" class="edge"><title>Lexer&#45;&gt;Token</title>
<path fill="none" stroke="black" d="M39,-222.327C39,-214.264 39,-204.648 39,-195.711"/>
<polygon fill="black" stroke="black" points="42.5001,-195.667 39,-185.667 35.5001,-195.667 42.5001,-195.667"/>
</g>
<!-- Measure -->
<g id="node13" class="node"><title>Measure</title>
<ellipse fill="none" stroke="black" cx="375" cy="-167" rx="53.033" ry="18.3848"/>
<text text-anchor="middle" x="375" y="-163.4" font-family="Times Roman,serif" font-size="14.00">Measure</text>
</g>
<!-- Piece&#45;&gt;Measure -->
<g id="edge14" class="edge"><title>Piece&#45;&gt;Measure</title>
<path fill="none" stroke="black" d="M319.338,-224.208C328.553,-214.738 340.247,-202.719 350.535,-192.145"/>
<polygon fill="black" stroke="black" points="353.258,-194.365 357.723,-184.757 348.241,-189.484 353.258,-194.365"/>
</g>
<!-- PieceVisitor -->
<g id="node9" class="node"><title>PieceVisitor</title>
<ellipse fill="none" stroke="black" cx="375" cy="-315" rx="68.0887" ry="18.3848"/>
<text text-anchor="middle" x="375" y="-311.4" font-family="Times Roman,serif" font-size="14.00">PieceVisitor</text>
</g>
<!-- PieceVisitor&#45;&gt;Piece -->
<g id="edge9" class="edge"><title>PieceVisitor&#45;&gt;Piece</title>
<path fill="none" stroke="black" d="M357.571,-297.087C348.194,-287.449 336.502,-275.432 326.348,-264.997"/>
<polygon fill="black" stroke="black" points="328.764,-262.46 319.282,-257.734 323.747,-267.342 328.764,-262.46"/>
</g>
<!-- MeasureIterator -->
<g id="node12" class="node"><title>MeasureIterator</title>
<ellipse fill="none" stroke="black" cx="448" cy="-241" rx="90.0096" ry="18.3848"/>
<text text-anchor="middle" x="448" y="-237.4" font-family="Times Roman,serif" font-size="14.00">MeasureIterator</text>
</g>
<!-- PieceVisitor&#45;&gt;MeasureIterator -->
<g id="edge11" class="edge"><title>PieceVisitor&#45;&gt;MeasureIterator</title>
<path fill="none" stroke="black" d="M392.671,-297.087C401.683,-287.952 412.803,-276.679 422.705,-266.642"/>
<polygon fill="black" stroke="black" points="425.453,-268.839 429.984,-259.262 420.47,-263.924 425.453,-268.839"/>
</g>
<!-- SequencePlayer -->
<g id="node26" class="node"><title>SequencePlayer</title>
<ellipse fill="none" stroke="black" cx="646" cy="-241" rx="89.8026" ry="18.3848"/>
<text text-anchor="middle" x="646" y="-237.4" font-family="Times Roman,serif" font-size="14.00">SequencePlayer</text>
</g>
<!-- PieceVisitor&#45;&gt;SequencePlayer -->
<g id="edge28" class="edge"><title>PieceVisitor&#45;&gt;SequencePlayer</title>
<path fill="none" stroke="black" d="M423.137,-301.856C467.391,-289.771 533.318,-271.769 581.995,-258.477"/>
<polygon fill="black" stroke="black" points="583.072,-261.811 591.797,-255.801 581.228,-255.059 583.072,-261.811"/>
</g>
<!-- MeasureIterator&#45;&gt;Measure -->
<g id="edge12" class="edge"><title>MeasureIterator&#45;&gt;Measure</title>
<path fill="none" stroke="black" d="M429.955,-222.708C420.804,-213.431 409.552,-202.025 399.618,-191.955"/>
<polygon fill="black" stroke="black" points="401.849,-189.233 392.335,-184.572 396.866,-194.149 401.849,-189.233"/>
</g>
<!-- Measure&#45;&gt;Measure -->
<g id="edge17" class="edge"><title>Measure&#45;&gt;Measure</title>
<path fill="none" stroke="black" d="M411.531,-180.465C429.749,-182.328 446,-177.84 446,-167 446,-158.277 435.477,-153.667 421.874,-153.17"/>
<polygon fill="black" stroke="black" points="421.401,-149.684 411.531,-153.535 421.648,-156.68 421.401,-149.684"/>
</g>
<!-- Note -->
<g id="node15" class="node"><title>Note</title>
<ellipse fill="none" stroke="black" cx="333" cy="-93" rx="34.8574" ry="18.3848"/>
<text text-anchor="middle" x="333" y="-89.4" font-family="Times Roman,serif" font-size="14.00">Note</text>
</g>
<!-- Measure&#45;&gt;Note -->
<g id="edge15" class="edge"><title>Measure&#45;&gt;Note</title>
<path fill="none" stroke="black" d="M364.618,-148.708C359.648,-139.951 353.6,-129.296 348.131,-119.659"/>
<polygon fill="black" stroke="black" points="351.098,-117.796 343.118,-110.826 345.01,-121.251 351.098,-117.796"/>
</g>
<!-- Pair -->
<g id="node18" class="node"><title>Pair</title>
<ellipse fill="none" stroke="black" cx="416" cy="-93" rx="29.9071" ry="18.3848"/>
<text text-anchor="middle" x="416" y="-89.4" font-family="Times Roman,serif" font-size="14.00">Pair</text>
</g>
<!-- Measure&#45;&gt;Pair -->
<g id="edge19" class="edge"><title>Measure&#45;&gt;Pair</title>
<path fill="none" stroke="black" d="M385.135,-148.708C390.023,-139.886 395.978,-129.138 401.348,-119.445"/>
<polygon fill="black" stroke="black" points="404.479,-121.016 406.264,-110.572 398.356,-117.623 404.479,-121.016"/>
</g>
<!-- Pitch -->
<g id="node20" class="node"><title>Pitch</title>
<ellipse fill="none" stroke="black" cx="281" cy="-19" rx="36.0624" ry="18.3848"/>
<text text-anchor="middle" x="281" y="-15.4" font-family="Times Roman,serif" font-size="14.00">Pitch</text>
</g>
<!-- Note&#45;&gt;Pitch -->
<g id="edge21" class="edge"><title>Note&#45;&gt;Pitch</title>
<path fill="none" stroke="black" d="M320.677,-75.463C314.266,-66.3394 306.303,-55.0086 299.198,-44.897"/>
<polygon fill="black" stroke="black" points="301.848,-42.5807 293.235,-36.4111 296.121,-46.6053 301.848,-42.5807"/>
</g>
<!-- Fraction -->
<g id="node22" class="node"><title>Fraction</title>
<ellipse fill="none" stroke="black" cx="386" cy="-19" rx="50.9117" ry="18.3848"/>
<text text-anchor="middle" x="386" y="-15.4" font-family="Times Roman,serif" font-size="14.00">Fraction</text>
</g>
<!-- Note&#45;&gt;Fraction -->
<g id="edge23" class="edge"><title>Note&#45;&gt;Fraction</title>
<path fill="none" stroke="black" d="M345.56,-75.463C352,-66.4716 359.975,-55.3365 367.137,-45.3374"/>
<polygon fill="black" stroke="black" points="370.184,-47.093 373.162,-36.9251 364.493,-43.0171 370.184,-47.093"/>
</g>
<!-- Player -->
<g id="node23" class="node"><title>Player</title>
<ellipse fill="none" stroke="black" cx="274" cy="-389" rx="41.9273" ry="18.3848"/>
<text text-anchor="middle" x="274" y="-385.4" font-family="Times Roman,serif" font-size="14.00">Player</text>
</g>
<!-- Player&#45;&gt;Parser -->
<g id="edge25" class="edge"><title>Player&#45;&gt;Parser</title>
<path fill="none" stroke="black" d="M258.596,-371.463C250.339,-362.063 240.024,-350.32 230.943,-339.981"/>
<polygon fill="black" stroke="black" points="233.523,-337.614 224.294,-332.411 228.263,-342.234 233.523,-337.614"/>
</g>
<!-- Player&#45;&gt;PieceVisitor -->
<g id="edge27" class="edge"><title>Player&#45;&gt;PieceVisitor</title>
<path fill="none" stroke="black" d="M295.915,-372.943C309.622,-362.901 327.518,-349.789 342.818,-338.579"/>
<polygon fill="black" stroke="black" points="345.01,-341.312 351.008,-332.578 340.873,-335.665 345.01,-341.312"/>
</g>
</g>
</svg>
