<?xml version="1.0" encoding="UTF-8" standalone="no"?>
<!DOCTYPE svg PUBLIC "-//W3C//DTD SVG 1.1//EN"
 "http://www.w3.org/Graphics/SVG/1.1/DTD/svg11.dtd">
<!-- Generated by graphviz version 2.26.3 (20100126.1600)
 -->
<!-- Title: Classes Pages: 1 -->
<svg width="388pt" height="416pt"
 viewBox="0.00 0.00 388.00 416.00" xmlns="http://www.w3.org/2000/svg" xmlns:xlink="http://www.w3.org/1999/xlink">
<g id="graph1" class="graph" transform="scale(1 1) rotate(0) translate(4 412)">
<title>Classes</title>
<polygon fill="white" stroke="white" points="-4,5 -4,-412 385,-412 385,5 -4,5"/>
<!-- Parser -->
<g id="node1" class="node"><title>Parser</title>
<ellipse fill="none" stroke="black" cx="90" cy="-315" rx="41.9273" ry="18.3848"/>
<text text-anchor="middle" x="90" y="-311.4" font-family="Times Roman,serif" font-size="14.00">Parser</text>
</g>
<!-- Lexer -->
<g id="node3" class="node"><title>Lexer</title>
<ellipse fill="none" stroke="black" cx="43" cy="-241" rx="38.8909" ry="18.3848"/>
<text text-anchor="middle" x="43" y="-237.4" font-family="Times Roman,serif" font-size="14.00">Lexer</text>
</g>
<!-- Parser&#45;&gt;Lexer -->
<g id="edge2" class="edge"><title>Parser&#45;&gt;Lexer</title>
<path fill="none" stroke="black" d="M78.6226,-297.087C72.965,-288.179 66.0164,-277.239 59.7631,-267.393"/>
<polygon fill="black" stroke="black" points="62.5885,-265.313 54.2726,-258.748 56.6796,-269.066 62.5885,-265.313"/>
</g>
<!-- Piece -->
<g id="node6" class="node"><title>Piece</title>
<ellipse fill="none" stroke="black" cx="145" cy="-241" rx="36.977" ry="18.3848"/>
<text text-anchor="middle" x="145" y="-237.4" font-family="Times Roman,serif" font-size="14.00">Piece</text>
</g>
<!-- Parser&#45;&gt;Piece -->
<g id="edge5" class="edge"><title>Parser&#45;&gt;Piece</title>
<path fill="none" stroke="black" d="M103.314,-297.087C110.119,-287.93 118.521,-276.626 125.994,-266.571"/>
<polygon fill="black" stroke="black" points="128.842,-268.607 131.998,-258.493 123.224,-264.431 128.842,-268.607"/>
</g>
<!-- Token -->
<g id="node4" class="node"><title>Token</title>
<ellipse fill="none" stroke="black" cx="39" cy="-167" rx="39.0967" ry="18.3848"/>
<text text-anchor="middle" x="39" y="-163.4" font-family="Times Roman,serif" font-size="14.00">Token</text>
</g>
<!-- Lexer&#45;&gt;Token -->
<g id="edge3" class="edge"><title>Lexer&#45;&gt;Token</title>
<path fill="none" stroke="black" d="M41.9906,-222.327C41.5548,-214.264 41.035,-204.648 40.552,-195.711"/>
<polygon fill="black" stroke="black" points="44.0438,-195.464 40.009,-185.667 37.054,-195.842 44.0438,-195.464"/>
</g>
<!-- Measure -->
<g id="node10" class="node"><title>Measure</title>
<ellipse fill="none" stroke="black" cx="149" cy="-167" rx="53.033" ry="18.3848"/>
<text text-anchor="middle" x="149" y="-163.4" font-family="Times Roman,serif" font-size="14.00">Measure</text>
</g>
<!-- Piece&#45;&gt;Measure -->
<g id="edge9" class="edge"><title>Piece&#45;&gt;Measure</title>
<path fill="none" stroke="black" d="M146.009,-222.327C146.445,-214.264 146.965,-204.648 147.448,-195.711"/>
<polygon fill="black" stroke="black" points="150.946,-195.842 147.991,-185.667 143.956,-195.464 150.946,-195.842"/>
</g>
<!-- PieceVisitor -->
<g id="node7" class="node"><title>PieceVisitor</title>
<ellipse fill="none" stroke="black" cx="218" cy="-315" rx="68.0887" ry="18.3848"/>
<text text-anchor="middle" x="218" y="-311.4" font-family="Times Roman,serif" font-size="14.00">PieceVisitor</text>
</g>
<!-- PieceVisitor&#45;&gt;Piece -->
<g id="edge7" class="edge"><title>PieceVisitor&#45;&gt;Piece</title>
<path fill="none" stroke="black" d="M200.329,-297.087C190.821,-287.449 178.967,-275.432 168.672,-264.997"/>
<polygon fill="black" stroke="black" points="171.022,-262.395 161.508,-257.734 166.039,-267.311 171.022,-262.395"/>
</g>
<!-- SequencePlayer -->
<g id="node20" class="node"><title>SequencePlayer</title>
<ellipse fill="none" stroke="black" cx="290" cy="-241" rx="89.8026" ry="18.3848"/>
<text text-anchor="middle" x="290" y="-237.4" font-family="Times Roman,serif" font-size="14.00">SequencePlayer</text>
</g>
<!-- PieceVisitor&#45;&gt;SequencePlayer -->
<g id="edge21" class="edge"><title>PieceVisitor&#45;&gt;SequencePlayer</title>
<path fill="none" stroke="black" d="M235.429,-297.087C244.317,-287.952 255.285,-276.679 265.051,-266.642"/>
<polygon fill="black" stroke="black" points="267.766,-268.87 272.231,-259.262 262.749,-263.989 267.766,-268.87"/>
</g>
<!-- Measure&#45;&gt;Measure -->
<g id="edge12" class="edge"><title>Measure&#45;&gt;Measure</title>
<path fill="none" stroke="black" d="M185.531,-180.465C203.749,-182.328 220,-177.84 220,-167 220,-158.277 209.477,-153.667 195.874,-153.17"/>
<polygon fill="black" stroke="black" points="195.401,-149.684 185.531,-153.535 195.648,-156.68 195.401,-149.684"/>
</g>
<!-- Note -->
<g id="node11" class="node"><title>Note</title>
<ellipse fill="none" stroke="black" cx="149" cy="-93" rx="34.8574" ry="18.3848"/>
<text text-anchor="middle" x="149" y="-89.4" font-family="Times Roman,serif" font-size="14.00">Note</text>
</g>
<!-- Measure&#45;&gt;Note -->
<g id="edge10" class="edge"><title>Measure&#45;&gt;Note</title>
<path fill="none" stroke="black" d="M149,-148.327C149,-140.264 149,-130.648 149,-121.711"/>
<polygon fill="black" stroke="black" points="152.5,-121.667 149,-111.667 145.5,-121.667 152.5,-121.667"/>
</g>
<!-- Pitch -->
<g id="node14" class="node"><title>Pitch</title>
<ellipse fill="none" stroke="black" cx="97" cy="-19" rx="36.0624" ry="18.3848"/>
<text text-anchor="middle" x="97" y="-15.4" font-family="Times Roman,serif" font-size="14.00">Pitch</text>
</g>
<!-- Note&#45;&gt;Pitch -->
<g id="edge14" class="edge"><title>Note&#45;&gt;Pitch</title>
<path fill="none" stroke="black" d="M136.677,-75.463C130.266,-66.3394 122.303,-55.0086 115.198,-44.897"/>
<polygon fill="black" stroke="black" points="117.848,-42.5807 109.235,-36.4111 112.121,-46.6053 117.848,-42.5807"/>
</g>
<!-- Fraction -->
<g id="node16" class="node"><title>Fraction</title>
<ellipse fill="none" stroke="black" cx="202" cy="-19" rx="50.9117" ry="18.3848"/>
<text text-anchor="middle" x="202" y="-15.4" font-family="Times Roman,serif" font-size="14.00">Fraction</text>
</g>
<!-- Note&#45;&gt;Fraction -->
<g id="edge16" class="edge"><title>Note&#45;&gt;Fraction</title>
<path fill="none" stroke="black" d="M161.56,-75.463C168,-66.4716 175.975,-55.3365 183.137,-45.3374"/>
<polygon fill="black" stroke="black" points="186.184,-47.093 189.162,-36.9251 180.493,-43.0171 186.184,-47.093"/>
</g>
<!-- Player -->
<g id="node17" class="node"><title>Player</title>
<ellipse fill="none" stroke="black" cx="154" cy="-389" rx="41.9273" ry="18.3848"/>
<text text-anchor="middle" x="154" y="-385.4" font-family="Times Roman,serif" font-size="14.00">Player</text>
</g>
<!-- Player&#45;&gt;Parser -->
<g id="edge18" class="edge"><title>Player&#45;&gt;Parser</title>
<path fill="none" stroke="black" d="M138.833,-371.463C130.703,-362.063 120.547,-350.32 111.605,-339.981"/>
<polygon fill="black" stroke="black" points="114.247,-337.685 105.058,-332.411 108.953,-342.264 114.247,-337.685"/>
</g>
<!-- Player&#45;&gt;PieceVisitor -->
<g id="edge20" class="edge"><title>Player&#45;&gt;PieceVisitor</title>
<path fill="none" stroke="black" d="M169.167,-371.463C177.042,-362.357 186.819,-351.053 195.551,-340.957"/>
<polygon fill="black" stroke="black" points="198.379,-343.037 202.273,-333.184 193.085,-338.458 198.379,-343.037"/>
</g>
</g>
</svg>
