<?xml version="1.0" encoding="UTF-8" standalone="no"?>
<!DOCTYPE svg PUBLIC "-//W3C//DTD SVG 1.1//EN"
 "http://www.w3.org/Graphics/SVG/1.1/DTD/svg11.dtd">
<!-- Generated by graphviz version 2.26.3 (20100126.1600)
 -->
<!-- Title: Classes Pages: 1 -->
<svg width="767pt" height="416pt"
 viewBox="0.00 0.00 767.00 416.00" xmlns="http://www.w3.org/2000/svg" xmlns:xlink="http://www.w3.org/1999/xlink">
<g id="graph1" class="graph" transform="scale(1 1) rotate(0) translate(4 412)">
<title>Classes</title>
<polygon fill="white" stroke="white" points="-4,5 -4,-412 764,-412 764,5 -4,5"/>
<!-- Parser -->
<g id="node1" class="node"><title>Parser</title>
<ellipse fill="none" stroke="black" cx="232" cy="-315" rx="41.9273" ry="18.3848"/>
<text text-anchor="middle" x="232" y="-311.4" font-family="Times Roman,serif" font-size="14.00">Parser</text>
</g>
<!-- Lexer -->
<g id="node3" class="node"><title>Lexer</title>
<ellipse fill="none" stroke="black" cx="62" cy="-241" rx="38.8909" ry="18.3848"/>
<text text-anchor="middle" x="62" y="-237.4" font-family="Times Roman,serif" font-size="14.00">Lexer</text>
</g>
<!-- Parser&#45;&gt;Lexer -->
<g id="edge2" class="edge"><title>Parser&#45;&gt;Lexer</title>
<path fill="none" stroke="black" d="M201.999,-301.941C173.701,-289.623 131.152,-271.101 100.391,-257.711"/>
<polygon fill="black" stroke="black" points="101.417,-254.341 90.851,-253.559 98.623,-260.759 101.417,-254.341"/>
</g>
<!-- CircleOfFifths -->
<g id="node7" class="node"><title>CircleOfFifths</title>
<ellipse fill="none" stroke="black" cx="195" cy="-241" rx="75.8684" ry="18.3848"/>
<text text-anchor="middle" x="195" y="-237.4" font-family="Times Roman,serif" font-size="14.00">CircleOfFifths</text>
</g>
<!-- Parser&#45;&gt;CircleOfFifths -->
<g id="edge6" class="edge"><title>Parser&#45;&gt;CircleOfFifths</title>
<path fill="none" stroke="black" d="M222.854,-296.708C218.617,-288.233 213.491,-277.982 208.798,-268.596"/>
<polygon fill="black" stroke="black" points="211.901,-266.975 204.298,-259.596 205.64,-270.105 211.901,-266.975"/>
</g>
<!-- Piece -->
<g id="node9" class="node"><title>Piece</title>
<ellipse fill="none" stroke="black" cx="326" cy="-241" rx="36.977" ry="18.3848"/>
<text text-anchor="middle" x="326" y="-237.4" font-family="Times Roman,serif" font-size="14.00">Piece</text>
</g>
<!-- Parser&#45;&gt;Piece -->
<g id="edge8" class="edge"><title>Parser&#45;&gt;Piece</title>
<path fill="none" stroke="black" d="M252.862,-298.577C266.155,-288.112 283.538,-274.428 298.022,-263.025"/>
<polygon fill="black" stroke="black" points="300.47,-265.553 306.162,-256.617 296.14,-260.053 300.47,-265.553"/>
</g>
<!-- Token -->
<g id="node4" class="node"><title>Token</title>
<ellipse fill="none" stroke="black" cx="62" cy="-167" rx="39.0967" ry="18.3848"/>
<text text-anchor="middle" x="62" y="-163.4" font-family="Times Roman,serif" font-size="14.00">Token</text>
</g>
<!-- Lexer&#45;&gt;Token -->
<g id="edge3" class="edge"><title>Lexer&#45;&gt;Token</title>
<path fill="none" stroke="black" d="M62,-222.327C62,-214.264 62,-204.648 62,-195.711"/>
<polygon fill="black" stroke="black" points="65.5001,-195.667 62,-185.667 58.5001,-195.667 65.5001,-195.667"/>
</g>
<!-- TokenType -->
<g id="node5" class="node"><title>TokenType</title>
<ellipse fill="none" stroke="black" cx="62" cy="-93" rx="62.2254" ry="18.3848"/>
<text text-anchor="middle" x="62" y="-89.4" font-family="Times Roman,serif" font-size="14.00">TokenType</text>
</g>
<!-- Token&#45;&gt;TokenType -->
<g id="edge4" class="edge"><title>Token&#45;&gt;TokenType</title>
<path fill="none" stroke="black" d="M62,-148.327C62,-140.264 62,-130.648 62,-121.711"/>
<polygon fill="black" stroke="black" points="65.5001,-121.667 62,-111.667 58.5001,-121.667 65.5001,-121.667"/>
</g>
<!-- Measure -->
<g id="node14" class="node"><title>Measure</title>
<ellipse fill="none" stroke="black" cx="334" cy="-167" rx="53.033" ry="18.3848"/>
<text text-anchor="middle" x="334" y="-163.4" font-family="Times Roman,serif" font-size="14.00">Measure</text>
</g>
<!-- Piece&#45;&gt;Measure -->
<g id="edge15" class="edge"><title>Piece&#45;&gt;Measure</title>
<path fill="none" stroke="black" d="M328.019,-222.327C328.89,-214.264 329.93,-204.648 330.896,-195.711"/>
<polygon fill="black" stroke="black" points="334.387,-195.986 331.982,-185.667 327.427,-195.233 334.387,-195.986"/>
</g>
<!-- PieceVisitor -->
<g id="node10" class="node"><title>PieceVisitor</title>
<ellipse fill="none" stroke="black" cx="398" cy="-315" rx="68.0887" ry="18.3848"/>
<text text-anchor="middle" x="398" y="-311.4" font-family="Times Roman,serif" font-size="14.00">PieceVisitor</text>
</g>
<!-- PieceVisitor&#45;&gt;Piece -->
<g id="edge10" class="edge"><title>PieceVisitor&#45;&gt;Piece</title>
<path fill="none" stroke="black" d="M380.571,-297.087C371.194,-287.449 359.502,-275.432 349.348,-264.997"/>
<polygon fill="black" stroke="black" points="351.764,-262.46 342.282,-257.734 346.747,-267.342 351.764,-262.46"/>
</g>
<!-- MeasureIterator -->
<g id="node13" class="node"><title>MeasureIterator</title>
<ellipse fill="none" stroke="black" cx="471" cy="-241" rx="90.0096" ry="18.3848"/>
<text text-anchor="middle" x="471" y="-237.4" font-family="Times Roman,serif" font-size="14.00">MeasureIterator</text>
</g>
<!-- PieceVisitor&#45;&gt;MeasureIterator -->
<g id="edge12" class="edge"><title>PieceVisitor&#45;&gt;MeasureIterator</title>
<path fill="none" stroke="black" d="M415.671,-297.087C424.683,-287.952 435.803,-276.679 445.705,-266.642"/>
<polygon fill="black" stroke="black" points="448.453,-268.839 452.984,-259.262 443.47,-263.924 448.453,-268.839"/>
</g>
<!-- SequencePlayer -->
<g id="node26" class="node"><title>SequencePlayer</title>
<ellipse fill="none" stroke="black" cx="669" cy="-241" rx="89.8026" ry="18.3848"/>
<text text-anchor="middle" x="669" y="-237.4" font-family="Times Roman,serif" font-size="14.00">SequencePlayer</text>
</g>
<!-- PieceVisitor&#45;&gt;SequencePlayer -->
<g id="edge27" class="edge"><title>PieceVisitor&#45;&gt;SequencePlayer</title>
<path fill="none" stroke="black" d="M446.137,-301.856C490.391,-289.771 556.318,-271.769 604.995,-258.477"/>
<polygon fill="black" stroke="black" points="606.072,-261.811 614.797,-255.801 604.228,-255.059 606.072,-261.811"/>
</g>
<!-- MeasureIterator&#45;&gt;Measure -->
<g id="edge13" class="edge"><title>MeasureIterator&#45;&gt;Measure</title>
<path fill="none" stroke="black" d="M438.88,-223.65C418.901,-212.859 393.105,-198.925 372.096,-187.578"/>
<polygon fill="black" stroke="black" points="373.58,-184.401 363.118,-182.728 370.253,-190.56 373.58,-184.401"/>
</g>
<!-- Note -->
<g id="node16" class="node"><title>Note</title>
<ellipse fill="none" stroke="black" cx="255" cy="-93" rx="34.8574" ry="18.3848"/>
<text text-anchor="middle" x="255" y="-89.4" font-family="Times Roman,serif" font-size="14.00">Note</text>
</g>
<!-- Measure&#45;&gt;Note -->
<g id="edge16" class="edge"><title>Measure&#45;&gt;Note</title>
<path fill="none" stroke="black" d="M315.278,-149.463C304.675,-139.531 291.28,-126.984 279.812,-116.241"/>
<polygon fill="black" stroke="black" points="281.929,-113.429 272.238,-109.147 277.143,-118.538 281.929,-113.429"/>
</g>
<!-- Pair&lt;Note,Fraction&gt; -->
<g id="node18" class="node"><title>Pair&lt;Note,Fraction&gt;</title>
<ellipse fill="none" stroke="black" cx="421" cy="-93" rx="113.137" ry="18.3848"/>
<text text-anchor="middle" x="421" y="-89.4" font-family="Times Roman,serif" font-size="14.00">Pair&lt;Note,Fraction&gt;</text>
</g>
<!-- Measure&#45;&gt;Pair&lt;Note,Fraction&gt; -->
<g id="edge18" class="edge"><title>Measure&#45;&gt;Pair&lt;Note,Fraction&gt;</title>
<path fill="none" stroke="black" d="M354.178,-149.837C365.296,-140.38 379.299,-128.469 391.611,-117.997"/>
<polygon fill="black" stroke="black" points="394.061,-120.509 399.411,-111.363 389.526,-115.176 394.061,-120.509"/>
</g>
<!-- Pitch -->
<g id="node20" class="node"><title>Pitch</title>
<ellipse fill="none" stroke="black" cx="202" cy="-19" rx="36.0624" ry="18.3848"/>
<text text-anchor="middle" x="202" y="-15.4" font-family="Times Roman,serif" font-size="14.00">Pitch</text>
</g>
<!-- Note&#45;&gt;Pitch -->
<g id="edge20" class="edge"><title>Note&#45;&gt;Pitch</title>
<path fill="none" stroke="black" d="M242.44,-75.463C235.839,-66.2473 227.626,-54.7794 220.329,-44.591"/>
<polygon fill="black" stroke="black" points="223.138,-42.503 214.47,-36.4111 217.447,-46.579 223.138,-42.503"/>
</g>
<!-- Fraction -->
<g id="node22" class="node"><title>Fraction</title>
<ellipse fill="none" stroke="black" cx="307" cy="-19" rx="50.9117" ry="18.3848"/>
<text text-anchor="middle" x="307" y="-15.4" font-family="Times Roman,serif" font-size="14.00">Fraction</text>
</g>
<!-- Note&#45;&gt;Fraction -->
<g id="edge22" class="edge"><title>Note&#45;&gt;Fraction</title>
<path fill="none" stroke="black" d="M267.323,-75.463C273.595,-66.5378 281.351,-55.5002 288.338,-45.5582"/>
<polygon fill="black" stroke="black" points="291.336,-47.3781 294.222,-37.1839 285.609,-43.3535 291.336,-47.3781"/>
</g>
<!-- Player -->
<g id="node23" class="node"><title>Player</title>
<ellipse fill="none" stroke="black" cx="297" cy="-389" rx="41.9273" ry="18.3848"/>
<text text-anchor="middle" x="297" y="-385.4" font-family="Times Roman,serif" font-size="14.00">Player</text>
</g>
<!-- Player&#45;&gt;Parser -->
<g id="edge24" class="edge"><title>Player&#45;&gt;Parser</title>
<path fill="none" stroke="black" d="M281.596,-371.463C273.339,-362.063 263.024,-350.32 253.943,-339.981"/>
<polygon fill="black" stroke="black" points="256.523,-337.614 247.294,-332.411 251.263,-342.234 256.523,-337.614"/>
</g>
<!-- Player&#45;&gt;PieceVisitor -->
<g id="edge26" class="edge"><title>Player&#45;&gt;PieceVisitor</title>
<path fill="none" stroke="black" d="M318.915,-372.943C332.622,-362.901 350.518,-349.789 365.818,-338.579"/>
<polygon fill="black" stroke="black" points="368.01,-341.312 374.008,-332.578 363.873,-335.665 368.01,-341.312"/>
</g>
</g>
</svg>
