<?xml version="1.0" encoding="UTF-8" standalone="no"?>
<!DOCTYPE svg PUBLIC "-//W3C//DTD SVG 1.1//EN"
 "http://www.w3.org/Graphics/SVG/1.1/DTD/svg11.dtd">
<!-- Generated by graphviz version 2.26.3 (20100126.1600)
 -->
<!-- Title: Classes Pages: 1 -->
<svg width="744pt" height="416pt"
 viewBox="0.00 0.00 744.00 416.00" xmlns="http://www.w3.org/2000/svg" xmlns:xlink="http://www.w3.org/1999/xlink">
<g id="graph1" class="graph" transform="scale(1 1) rotate(0) translate(4 412)">
<title>Classes</title>
<polygon fill="white" stroke="white" points="-4,5 -4,-412 741,-412 741,5 -4,5"/>
<!-- Parser -->
<g id="node1" class="node"><title>Parser</title>
<ellipse fill="none" stroke="black" cx="209" cy="-315" rx="41.9273" ry="18.3848"/>
<text text-anchor="middle" x="209" y="-311.4" font-family="Times Roman,serif" font-size="14.00">Parser</text>
</g>
<!-- Lexer -->
<g id="node3" class="node"><title>Lexer</title>
<ellipse fill="none" stroke="black" cx="39" cy="-241" rx="38.8909" ry="18.3848"/>
<text text-anchor="middle" x="39" y="-237.4" font-family="Times Roman,serif" font-size="14.00">Lexer</text>
</g>
<!-- Parser&#45;&gt;Lexer -->
<g id="edge2" class="edge"><title>Parser&#45;&gt;Lexer</title>
<path fill="none" stroke="black" d="M178.999,-301.941C150.701,-289.623 108.152,-271.101 77.3909,-257.711"/>
<polygon fill="black" stroke="black" points="78.4169,-254.341 67.851,-253.559 75.623,-260.759 78.4169,-254.341"/>
</g>
<!-- CircleOfFifths -->
<g id="node6" class="node"><title>CircleOfFifths</title>
<ellipse fill="none" stroke="black" cx="172" cy="-241" rx="75.8684" ry="18.3848"/>
<text text-anchor="middle" x="172" y="-237.4" font-family="Times Roman,serif" font-size="14.00">CircleOfFifths</text>
</g>
<!-- Parser&#45;&gt;CircleOfFifths -->
<g id="edge5" class="edge"><title>Parser&#45;&gt;CircleOfFifths</title>
<path fill="none" stroke="black" d="M199.854,-296.708C195.617,-288.233 190.491,-277.982 185.798,-268.596"/>
<polygon fill="black" stroke="black" points="188.901,-266.975 181.298,-259.596 182.64,-270.105 188.901,-266.975"/>
</g>
<!-- Piece -->
<g id="node8" class="node"><title>Piece</title>
<ellipse fill="none" stroke="black" cx="303" cy="-241" rx="36.977" ry="18.3848"/>
<text text-anchor="middle" x="303" y="-237.4" font-family="Times Roman,serif" font-size="14.00">Piece</text>
</g>
<!-- Parser&#45;&gt;Piece -->
<g id="edge7" class="edge"><title>Parser&#45;&gt;Piece</title>
<path fill="none" stroke="black" d="M229.862,-298.577C243.155,-288.112 260.538,-274.428 275.022,-263.025"/>
<polygon fill="black" stroke="black" points="277.47,-265.553 283.162,-256.617 273.14,-260.053 277.47,-265.553"/>
</g>
<!-- Token -->
<g id="node4" class="node"><title>Token</title>
<ellipse fill="none" stroke="black" cx="39" cy="-167" rx="39.0967" ry="18.3848"/>
<text text-anchor="middle" x="39" y="-163.4" font-family="Times Roman,serif" font-size="14.00">Token</text>
</g>
<!-- Lexer&#45;&gt;Token -->
<g id="edge3" class="edge"><title>Lexer&#45;&gt;Token</title>
<path fill="none" stroke="black" d="M39,-222.327C39,-214.264 39,-204.648 39,-195.711"/>
<polygon fill="black" stroke="black" points="42.5001,-195.667 39,-185.667 35.5001,-195.667 42.5001,-195.667"/>
</g>
<!-- Measure -->
<g id="node14" class="node"><title>Measure</title>
<ellipse fill="none" stroke="black" cx="303" cy="-167" rx="53.033" ry="18.3848"/>
<text text-anchor="middle" x="303" y="-163.4" font-family="Times Roman,serif" font-size="14.00">Measure</text>
</g>
<!-- Piece&#45;&gt;Measure -->
<g id="edge13" class="edge"><title>Piece&#45;&gt;Measure</title>
<path fill="none" stroke="black" d="M303,-222.327C303,-214.264 303,-204.648 303,-195.711"/>
<polygon fill="black" stroke="black" points="306.5,-195.667 303,-185.667 299.5,-195.667 306.5,-195.667"/>
</g>
<!-- PieceVisitor -->
<g id="node9" class="node"><title>PieceVisitor</title>
<ellipse fill="none" stroke="black" cx="375" cy="-315" rx="68.0887" ry="18.3848"/>
<text text-anchor="middle" x="375" y="-311.4" font-family="Times Roman,serif" font-size="14.00">PieceVisitor</text>
</g>
<!-- PieceVisitor&#45;&gt;Piece -->
<g id="edge9" class="edge"><title>PieceVisitor&#45;&gt;Piece</title>
<path fill="none" stroke="black" d="M357.571,-297.087C348.194,-287.449 336.502,-275.432 326.348,-264.997"/>
<polygon fill="black" stroke="black" points="328.764,-262.46 319.282,-257.734 323.747,-267.342 328.764,-262.46"/>
</g>
<!-- MeasureIterator -->
<g id="node12" class="node"><title>MeasureIterator</title>
<ellipse fill="none" stroke="black" cx="448" cy="-241" rx="90.0096" ry="18.3848"/>
<text text-anchor="middle" x="448" y="-237.4" font-family="Times Roman,serif" font-size="14.00">MeasureIterator</text>
</g>
<!-- PieceVisitor&#45;&gt;MeasureIterator -->
<g id="edge11" class="edge"><title>PieceVisitor&#45;&gt;MeasureIterator</title>
<path fill="none" stroke="black" d="M392.671,-297.087C401.683,-287.952 412.803,-276.679 422.705,-266.642"/>
<polygon fill="black" stroke="black" points="425.453,-268.839 429.984,-259.262 420.47,-263.924 425.453,-268.839"/>
</g>
<!-- SequencePlayer -->
<g id="node24" class="node"><title>SequencePlayer</title>
<ellipse fill="none" stroke="black" cx="646" cy="-241" rx="89.8026" ry="18.3848"/>
<text text-anchor="middle" x="646" y="-237.4" font-family="Times Roman,serif" font-size="14.00">SequencePlayer</text>
</g>
<!-- PieceVisitor&#45;&gt;SequencePlayer -->
<g id="edge25" class="edge"><title>PieceVisitor&#45;&gt;SequencePlayer</title>
<path fill="none" stroke="black" d="M423.137,-301.856C467.391,-289.771 533.318,-271.769 581.995,-258.477"/>
<polygon fill="black" stroke="black" points="583.072,-261.811 591.797,-255.801 581.228,-255.059 583.072,-261.811"/>
</g>
<!-- Measure&#45;&gt;Measure -->
<g id="edge16" class="edge"><title>Measure&#45;&gt;Measure</title>
<path fill="none" stroke="black" d="M339.531,-180.465C357.749,-182.328 374,-177.84 374,-167 374,-158.277 363.477,-153.667 349.874,-153.17"/>
<polygon fill="black" stroke="black" points="349.401,-149.684 339.531,-153.535 349.648,-156.68 349.401,-149.684"/>
</g>
<!-- Note -->
<g id="node15" class="node"><title>Note</title>
<ellipse fill="none" stroke="black" cx="303" cy="-93" rx="34.8574" ry="18.3848"/>
<text text-anchor="middle" x="303" y="-89.4" font-family="Times Roman,serif" font-size="14.00">Note</text>
</g>
<!-- Measure&#45;&gt;Note -->
<g id="edge14" class="edge"><title>Measure&#45;&gt;Note</title>
<path fill="none" stroke="black" d="M303,-148.327C303,-140.264 303,-130.648 303,-121.711"/>
<polygon fill="black" stroke="black" points="306.5,-121.667 303,-111.667 299.5,-121.667 306.5,-121.667"/>
</g>
<!-- Pitch -->
<g id="node18" class="node"><title>Pitch</title>
<ellipse fill="none" stroke="black" cx="251" cy="-19" rx="36.0624" ry="18.3848"/>
<text text-anchor="middle" x="251" y="-15.4" font-family="Times Roman,serif" font-size="14.00">Pitch</text>
</g>
<!-- Note&#45;&gt;Pitch -->
<g id="edge18" class="edge"><title>Note&#45;&gt;Pitch</title>
<path fill="none" stroke="black" d="M290.677,-75.463C284.266,-66.3394 276.303,-55.0086 269.198,-44.897"/>
<polygon fill="black" stroke="black" points="271.848,-42.5807 263.235,-36.4111 266.121,-46.6053 271.848,-42.5807"/>
</g>
<!-- Fraction -->
<g id="node20" class="node"><title>Fraction</title>
<ellipse fill="none" stroke="black" cx="356" cy="-19" rx="50.9117" ry="18.3848"/>
<text text-anchor="middle" x="356" y="-15.4" font-family="Times Roman,serif" font-size="14.00">Fraction</text>
</g>
<!-- Note&#45;&gt;Fraction -->
<g id="edge20" class="edge"><title>Note&#45;&gt;Fraction</title>
<path fill="none" stroke="black" d="M315.56,-75.463C322,-66.4716 329.975,-55.3365 337.137,-45.3374"/>
<polygon fill="black" stroke="black" points="340.184,-47.093 343.162,-36.9251 334.493,-43.0171 340.184,-47.093"/>
</g>
<!-- Player -->
<g id="node21" class="node"><title>Player</title>
<ellipse fill="none" stroke="black" cx="274" cy="-389" rx="41.9273" ry="18.3848"/>
<text text-anchor="middle" x="274" y="-385.4" font-family="Times Roman,serif" font-size="14.00">Player</text>
</g>
<!-- Player&#45;&gt;Parser -->
<g id="edge22" class="edge"><title>Player&#45;&gt;Parser</title>
<path fill="none" stroke="black" d="M258.596,-371.463C250.339,-362.063 240.024,-350.32 230.943,-339.981"/>
<polygon fill="black" stroke="black" points="233.523,-337.614 224.294,-332.411 228.263,-342.234 233.523,-337.614"/>
</g>
<!-- Player&#45;&gt;PieceVisitor -->
<g id="edge24" class="edge"><title>Player&#45;&gt;PieceVisitor</title>
<path fill="none" stroke="black" d="M295.915,-372.943C309.622,-362.901 327.518,-349.789 342.818,-338.579"/>
<polygon fill="black" stroke="black" points="345.01,-341.312 351.008,-332.578 340.873,-335.665 345.01,-341.312"/>
</g>
</g>
</svg>
