<?xml version="1.0" encoding="UTF-8" standalone="no"?>
<!DOCTYPE svg PUBLIC "-//W3C//DTD SVG 1.1//EN"
 "http://www.w3.org/Graphics/SVG/1.1/DTD/svg11.dtd">
<!-- Generated by graphviz version 2.26.3 (20100126.1600)
 -->
<!-- Title: Classes Pages: 1 -->
<svg width="772pt" height="268pt"
 viewBox="0.00 0.00 772.00 268.00" xmlns="http://www.w3.org/2000/svg" xmlns:xlink="http://www.w3.org/1999/xlink">
<g id="graph1" class="graph" transform="scale(1 1) rotate(0) translate(4 264)">
<title>Classes</title>
<polygon fill="white" stroke="white" points="-4,5 -4,-264 769,-264 769,5 -4,5"/>
<!-- Parser -->
<g id="node1" class="node"><title>Parser</title>
<ellipse fill="none" stroke="black" cx="244" cy="-167" rx="41.9273" ry="18.3848"/>
<text text-anchor="middle" x="244" y="-163.4" font-family="Times Roman,serif" font-size="14.00">Parser</text>
</g>
<!-- Lexer -->
<g id="node3" class="node"><title>Lexer</title>
<ellipse fill="none" stroke="black" cx="39" cy="-93" rx="38.8909" ry="18.3848"/>
<text text-anchor="middle" x="39" y="-89.4" font-family="Times Roman,serif" font-size="14.00">Lexer</text>
</g>
<!-- Parser&#45;&gt;Lexer -->
<g id="edge2" class="edge"><title>Parser&#45;&gt;Lexer</title>
<path fill="none" stroke="black" d="M210.477,-155.69C178.595,-144.831 129.35,-127.793 87,-112 84.1527,-110.938 81.2176,-109.824 78.2679,-108.691"/>
<polygon fill="black" stroke="black" points="79.4754,-105.405 68.8867,-105.044 76.9388,-111.929 79.4754,-105.405"/>
</g>
<!-- SomeSortOfPotentiallyComplexDataStructure -->
<g id="node6" class="node"><title>SomeSortOfPotentiallyComplexDataStructure</title>
<ellipse fill="none" stroke="black" cx="331" cy="-93" rx="234.759" ry="18.3848"/>
<text text-anchor="middle" x="331" y="-89.4" font-family="Times Roman,serif" font-size="14.00">SomeSortOfPotentiallyComplexDataStructure</text>
</g>
<!-- Parser&#45;&gt;SomeSortOfPotentiallyComplexDataStructure -->
<g id="edge5" class="edge"><title>Parser&#45;&gt;SomeSortOfPotentiallyComplexDataStructure</title>
<path fill="none" stroke="black" d="M263.742,-150.208C274.846,-140.764 288.929,-128.785 301.336,-118.232"/>
<polygon fill="black" stroke="black" points="303.849,-120.689 309.199,-111.544 299.314,-115.357 303.849,-120.689"/>
</g>
<!-- Token -->
<g id="node4" class="node"><title>Token</title>
<ellipse fill="none" stroke="black" cx="39" cy="-19" rx="39.0967" ry="18.3848"/>
<text text-anchor="middle" x="39" y="-15.4" font-family="Times Roman,serif" font-size="14.00">Token</text>
</g>
<!-- Lexer&#45;&gt;Token -->
<g id="edge3" class="edge"><title>Lexer&#45;&gt;Token</title>
<path fill="none" stroke="black" d="M39,-74.3267C39,-66.2639 39,-56.6477 39,-47.7115"/>
<polygon fill="black" stroke="black" points="42.5001,-47.6673 39,-37.6674 35.5001,-47.6674 42.5001,-47.6673"/>
</g>
<!-- DataStructureVisitor -->
<g id="node7" class="node"><title>DataStructureVisitor</title>
<ellipse fill="none" stroke="black" cx="418" cy="-167" rx="113.844" ry="18.3848"/>
<text text-anchor="middle" x="418" y="-163.4" font-family="Times Roman,serif" font-size="14.00">DataStructureVisitor</text>
</g>
<!-- DataStructureVisitor&#45;&gt;SomeSortOfPotentiallyComplexDataStructure -->
<g id="edge7" class="edge"><title>DataStructureVisitor&#45;&gt;SomeSortOfPotentiallyComplexDataStructure</title>
<path fill="none" stroke="black" d="M396.494,-148.708C385.701,-139.527 372.456,-128.261 360.708,-118.269"/>
<polygon fill="black" stroke="black" points="362.747,-115.409 352.863,-111.596 358.212,-120.741 362.747,-115.409"/>
</g>
<!-- SequencePlayer -->
<g id="node12" class="node"><title>SequencePlayer</title>
<ellipse fill="none" stroke="black" cx="674" cy="-93" rx="89.8026" ry="18.3848"/>
<text text-anchor="middle" x="674" y="-89.4" font-family="Times Roman,serif" font-size="14.00">SequencePlayer</text>
</g>
<!-- DataStructureVisitor&#45;&gt;SequencePlayer -->
<g id="edge12" class="edge"><title>DataStructureVisitor&#45;&gt;SequencePlayer</title>
<path fill="none" stroke="black" d="M473.864,-150.852C514.588,-139.08 569.776,-123.127 611.885,-110.955"/>
<polygon fill="black" stroke="black" points="613.112,-114.244 621.747,-108.104 611.168,-107.519 613.112,-114.244"/>
</g>
<!-- Player -->
<g id="node9" class="node"><title>Player</title>
<ellipse fill="none" stroke="black" cx="331" cy="-241" rx="41.9273" ry="18.3848"/>
<text text-anchor="middle" x="331" y="-237.4" font-family="Times Roman,serif" font-size="14.00">Player</text>
</g>
<!-- Player&#45;&gt;Parser -->
<g id="edge9" class="edge"><title>Player&#45;&gt;Parser</title>
<path fill="none" stroke="black" d="M311.258,-224.208C299.384,-214.109 284.104,-201.111 271.109,-190.058"/>
<polygon fill="black" stroke="black" points="273.249,-187.283 263.364,-183.47 268.713,-192.615 273.249,-187.283"/>
</g>
<!-- Player&#45;&gt;DataStructureVisitor -->
<g id="edge11" class="edge"><title>Player&#45;&gt;DataStructureVisitor</title>
<path fill="none" stroke="black" d="M350.742,-224.208C361.928,-214.694 376.138,-202.607 388.611,-191.997"/>
<polygon fill="black" stroke="black" points="391.159,-194.425 396.508,-185.28 386.623,-189.093 391.159,-194.425"/>
</g>
</g>
</svg>
