<?xml version="1.0" encoding="UTF-8" standalone="no"?>
<!DOCTYPE svg PUBLIC "-//W3C//DTD SVG 1.1//EN"
 "http://www.w3.org/Graphics/SVG/1.1/DTD/svg11.dtd">
<!-- Generated by graphviz version 2.26.3 (20100126.1600)
 -->
<!-- Title: Classes Pages: 1 -->
<svg width="388pt" height="416pt"
 viewBox="0.00 0.00 388.00 416.00" xmlns="http://www.w3.org/2000/svg" xmlns:xlink="http://www.w3.org/1999/xlink">
<g id="graph1" class="graph" transform="scale(1 1) rotate(0) translate(4 412)">
<title>Classes</title>
<polygon fill="white" stroke="white" points="-4,5 -4,-412 385,-412 385,5 -4,5"/>
<!-- Parser -->
<g id="node1" class="node"><title>Parser</title>
<ellipse fill="none" stroke="black" cx="75" cy="-315" rx="41.9273" ry="18.3848"/>
<text text-anchor="middle" x="75" y="-311.4" font-family="Times Roman,serif" font-size="14.00">Parser</text>
</g>
<!-- Lexer -->
<g id="node3" class="node"><title>Lexer</title>
<ellipse fill="none" stroke="black" cx="43" cy="-241" rx="38.8909" ry="18.3848"/>
<text text-anchor="middle" x="43" y="-237.4" font-family="Times Roman,serif" font-size="14.00">Lexer</text>
</g>
<!-- Parser&#45;&gt;Lexer -->
<g id="edge2" class="edge"><title>Parser&#45;&gt;Lexer</title>
<path fill="none" stroke="black" d="M67.0899,-296.708C63.436,-288.258 59.0182,-278.042 54.969,-268.678"/>
<polygon fill="black" stroke="black" points="58.1117,-267.128 50.93,-259.338 51.6867,-269.906 58.1117,-267.128"/>
</g>
<!-- Piece -->
<g id="node6" class="node"><title>Piece</title>
<ellipse fill="none" stroke="black" cx="145" cy="-241" rx="36.977" ry="18.3848"/>
<text text-anchor="middle" x="145" y="-237.4" font-family="Times Roman,serif" font-size="14.00">Piece</text>
</g>
<!-- Parser&#45;&gt;Piece -->
<g id="edge5" class="edge"><title>Parser&#45;&gt;Piece</title>
<path fill="none" stroke="black" d="M91.2354,-297.837C100.4,-288.148 112.002,-275.883 122.081,-265.229"/>
<polygon fill="black" stroke="black" points="124.765,-267.485 129.094,-257.815 119.679,-262.674 124.765,-267.485"/>
</g>
<!-- Token -->
<g id="node4" class="node"><title>Token</title>
<ellipse fill="none" stroke="black" cx="39" cy="-167" rx="39.0967" ry="18.3848"/>
<text text-anchor="middle" x="39" y="-163.4" font-family="Times Roman,serif" font-size="14.00">Token</text>
</g>
<!-- Lexer&#45;&gt;Token -->
<g id="edge3" class="edge"><title>Lexer&#45;&gt;Token</title>
<path fill="none" stroke="black" d="M41.9906,-222.327C41.5548,-214.264 41.035,-204.648 40.552,-195.711"/>
<polygon fill="black" stroke="black" points="44.0438,-195.464 40.009,-185.667 37.054,-195.842 44.0438,-195.464"/>
</g>
<!-- Measure -->
<g id="node10" class="node"><title>Measure</title>
<ellipse fill="none" stroke="black" cx="149" cy="-167" rx="53.033" ry="18.3848"/>
<text text-anchor="middle" x="149" y="-163.4" font-family="Times Roman,serif" font-size="14.00">Measure</text>
</g>
<!-- Piece&#45;&gt;Measure -->
<g id="edge9" class="edge"><title>Piece&#45;&gt;Measure</title>
<path fill="none" stroke="black" d="M146.009,-222.327C146.445,-214.264 146.965,-204.648 147.448,-195.711"/>
<polygon fill="black" stroke="black" points="150.946,-195.842 147.991,-185.667 143.956,-195.464 150.946,-195.842"/>
</g>
<!-- DataStructureVisitor -->
<g id="node7" class="node"><title>DataStructureVisitor</title>
<ellipse fill="none" stroke="black" cx="249" cy="-315" rx="113.844" ry="18.3848"/>
<text text-anchor="middle" x="249" y="-311.4" font-family="Times Roman,serif" font-size="14.00">DataStructureVisitor</text>
</g>
<!-- DataStructureVisitor&#45;&gt;Piece -->
<g id="edge7" class="edge"><title>DataStructureVisitor&#45;&gt;Piece</title>
<path fill="none" stroke="black" d="M223.559,-296.898C208.743,-286.356 189.995,-273.016 174.53,-262.012"/>
<polygon fill="black" stroke="black" points="176.5,-259.118 166.322,-256.172 172.441,-264.821 176.5,-259.118"/>
</g>
<!-- SequencePlayer -->
<g id="node18" class="node"><title>SequencePlayer</title>
<ellipse fill="none" stroke="black" cx="290" cy="-241" rx="89.8026" ry="18.3848"/>
<text text-anchor="middle" x="290" y="-237.4" font-family="Times Roman,serif" font-size="14.00">SequencePlayer</text>
</g>
<!-- DataStructureVisitor&#45;&gt;SequencePlayer -->
<g id="edge18" class="edge"><title>DataStructureVisitor&#45;&gt;SequencePlayer</title>
<path fill="none" stroke="black" d="M259.346,-296.327C264.043,-287.849 269.692,-277.654 274.853,-268.338"/>
<polygon fill="black" stroke="black" points="278.014,-269.854 279.799,-259.411 271.891,-266.462 278.014,-269.854"/>
</g>
<!-- Note -->
<g id="node11" class="node"><title>Note</title>
<ellipse fill="none" stroke="black" cx="149" cy="-93" rx="34.8574" ry="18.3848"/>
<text text-anchor="middle" x="149" y="-89.4" font-family="Times Roman,serif" font-size="14.00">Note</text>
</g>
<!-- Measure&#45;&gt;Note -->
<g id="edge10" class="edge"><title>Measure&#45;&gt;Note</title>
<path fill="none" stroke="black" d="M149,-148.327C149,-140.264 149,-130.648 149,-121.711"/>
<polygon fill="black" stroke="black" points="152.5,-121.667 149,-111.667 145.5,-121.667 152.5,-121.667"/>
</g>
<!-- Fraction -->
<g id="node12" class="node"><title>Fraction</title>
<ellipse fill="none" stroke="black" cx="97" cy="-19" rx="50.9117" ry="18.3848"/>
<text text-anchor="middle" x="97" y="-15.4" font-family="Times Roman,serif" font-size="14.00">Fraction</text>
</g>
<!-- Note&#45;&gt;Fraction -->
<g id="edge11" class="edge"><title>Note&#45;&gt;Fraction</title>
<path fill="none" stroke="black" d="M136.677,-75.463C130.405,-66.5378 122.649,-55.5002 115.662,-45.5582"/>
<polygon fill="black" stroke="black" points="118.391,-43.3535 109.778,-37.1839 112.664,-47.3781 118.391,-43.3535"/>
</g>
<!-- Pitch -->
<g id="node14" class="node"><title>Pitch</title>
<ellipse fill="none" stroke="black" cx="202" cy="-19" rx="36.0624" ry="18.3848"/>
<text text-anchor="middle" x="202" y="-15.4" font-family="Times Roman,serif" font-size="14.00">Pitch</text>
</g>
<!-- Note&#45;&gt;Pitch -->
<g id="edge13" class="edge"><title>Note&#45;&gt;Pitch</title>
<path fill="none" stroke="black" d="M161.56,-75.463C168.161,-66.2473 176.374,-54.7794 183.671,-44.591"/>
<polygon fill="black" stroke="black" points="186.553,-46.579 189.53,-36.4111 180.862,-42.503 186.553,-46.579"/>
</g>
<!-- Player -->
<g id="node15" class="node"><title>Player</title>
<ellipse fill="none" stroke="black" cx="162" cy="-389" rx="41.9273" ry="18.3848"/>
<text text-anchor="middle" x="162" y="-385.4" font-family="Times Roman,serif" font-size="14.00">Player</text>
</g>
<!-- Player&#45;&gt;Parser -->
<g id="edge15" class="edge"><title>Player&#45;&gt;Parser</title>
<path fill="none" stroke="black" d="M142.258,-372.208C130.384,-362.109 115.104,-349.111 102.109,-338.058"/>
<polygon fill="black" stroke="black" points="104.249,-335.283 94.3638,-331.47 99.7134,-340.615 104.249,-335.283"/>
</g>
<!-- Player&#45;&gt;DataStructureVisitor -->
<g id="edge17" class="edge"><title>Player&#45;&gt;DataStructureVisitor</title>
<path fill="none" stroke="black" d="M181.742,-372.208C192.928,-362.694 207.138,-350.607 219.611,-339.997"/>
<polygon fill="black" stroke="black" points="222.159,-342.425 227.508,-333.28 217.623,-337.093 222.159,-342.425"/>
</g>
</g>
</svg>
