<?xml version="1.0" encoding="UTF-8" standalone="no"?>
<!DOCTYPE svg PUBLIC "-//W3C//DTD SVG 1.1//EN"
 "http://www.w3.org/Graphics/SVG/1.1/DTD/svg11.dtd">
<!-- Generated by graphviz version 2.26.3 (20100126.1600)
 -->
<!-- Title: Classes Pages: 1 -->
<svg width="787pt" height="564pt"
 viewBox="0.00 0.00 787.00 564.00" xmlns="http://www.w3.org/2000/svg" xmlns:xlink="http://www.w3.org/1999/xlink">
<g id="graph1" class="graph" transform="scale(1 1) rotate(0) translate(4 560)">
<title>Classes</title>
<polygon fill="white" stroke="white" points="-4,5 -4,-560 784,-560 784,5 -4,5"/>
<!-- Parser -->
<g id="node1" class="node"><title>Parser</title>
<ellipse fill="none" stroke="black" cx="232" cy="-463" rx="41.9273" ry="18.3848"/>
<text text-anchor="middle" x="232" y="-459.4" font-family="Times Roman,serif" font-size="14.00">Parser</text>
</g>
<!-- Lexer -->
<g id="node3" class="node"><title>Lexer</title>
<ellipse fill="none" stroke="black" cx="62" cy="-389" rx="38.8909" ry="18.3848"/>
<text text-anchor="middle" x="62" y="-385.4" font-family="Times Roman,serif" font-size="14.00">Lexer</text>
</g>
<!-- Parser&#45;&gt;Lexer -->
<g id="edge2" class="edge"><title>Parser&#45;&gt;Lexer</title>
<path fill="none" stroke="black" d="M201.999,-449.941C173.701,-437.623 131.152,-419.101 100.391,-405.711"/>
<polygon fill="black" stroke="black" points="101.417,-402.341 90.851,-401.559 98.623,-408.759 101.417,-402.341"/>
</g>
<!-- CircleOfFifths -->
<g id="node7" class="node"><title>CircleOfFifths</title>
<ellipse fill="none" stroke="black" cx="195" cy="-389" rx="75.8684" ry="18.3848"/>
<text text-anchor="middle" x="195" y="-385.4" font-family="Times Roman,serif" font-size="14.00">CircleOfFifths</text>
</g>
<!-- Parser&#45;&gt;CircleOfFifths -->
<g id="edge6" class="edge"><title>Parser&#45;&gt;CircleOfFifths</title>
<path fill="none" stroke="black" d="M222.854,-444.708C218.617,-436.233 213.491,-425.982 208.798,-416.596"/>
<polygon fill="black" stroke="black" points="211.901,-414.975 204.298,-407.596 205.64,-418.105 211.901,-414.975"/>
</g>
<!-- Piece -->
<g id="node9" class="node"><title>Piece</title>
<ellipse fill="none" stroke="black" cx="326" cy="-389" rx="36.977" ry="18.3848"/>
<text text-anchor="middle" x="326" y="-385.4" font-family="Times Roman,serif" font-size="14.00">Piece</text>
</g>
<!-- Parser&#45;&gt;Piece -->
<g id="edge8" class="edge"><title>Parser&#45;&gt;Piece</title>
<path fill="none" stroke="black" d="M252.862,-446.577C266.155,-436.112 283.538,-422.428 298.022,-411.025"/>
<polygon fill="black" stroke="black" points="300.47,-413.553 306.162,-404.617 296.14,-408.053 300.47,-413.553"/>
</g>
<!-- Token -->
<g id="node4" class="node"><title>Token</title>
<ellipse fill="none" stroke="black" cx="62" cy="-315" rx="39.0967" ry="18.3848"/>
<text text-anchor="middle" x="62" y="-311.4" font-family="Times Roman,serif" font-size="14.00">Token</text>
</g>
<!-- Lexer&#45;&gt;Token -->
<g id="edge3" class="edge"><title>Lexer&#45;&gt;Token</title>
<path fill="none" stroke="black" d="M62,-370.327C62,-362.264 62,-352.648 62,-343.711"/>
<polygon fill="black" stroke="black" points="65.5001,-343.667 62,-333.667 58.5001,-343.667 65.5001,-343.667"/>
</g>
<!-- TokenType -->
<g id="node5" class="node"><title>TokenType</title>
<ellipse fill="none" stroke="black" cx="62" cy="-241" rx="62.2254" ry="18.3848"/>
<text text-anchor="middle" x="62" y="-237.4" font-family="Times Roman,serif" font-size="14.00">TokenType</text>
</g>
<!-- Token&#45;&gt;TokenType -->
<g id="edge4" class="edge"><title>Token&#45;&gt;TokenType</title>
<path fill="none" stroke="black" d="M62,-296.327C62,-288.264 62,-278.648 62,-269.711"/>
<polygon fill="black" stroke="black" points="65.5001,-269.667 62,-259.667 58.5001,-269.667 65.5001,-269.667"/>
</g>
<!-- Voice -->
<g id="node16" class="node"><title>Voice</title>
<ellipse fill="none" stroke="black" cx="395" cy="-315" rx="36.977" ry="18.3848"/>
<text text-anchor="middle" x="395" y="-311.4" font-family="Times Roman,serif" font-size="14.00">Voice</text>
</g>
<!-- Piece&#45;&gt;Voice -->
<g id="edge15" class="edge"><title>Piece&#45;&gt;Voice</title>
<path fill="none" stroke="black" d="M341.657,-372.208C350.68,-362.532 362.183,-350.195 372.196,-339.457"/>
<polygon fill="black" stroke="black" points="374.906,-341.682 379.166,-331.981 369.786,-336.908 374.906,-341.682"/>
</g>
<!-- PieceVisitor -->
<g id="node10" class="node"><title>PieceVisitor</title>
<ellipse fill="none" stroke="black" cx="398" cy="-463" rx="68.0887" ry="18.3848"/>
<text text-anchor="middle" x="398" y="-459.4" font-family="Times Roman,serif" font-size="14.00">PieceVisitor</text>
</g>
<!-- PieceVisitor&#45;&gt;Piece -->
<g id="edge10" class="edge"><title>PieceVisitor&#45;&gt;Piece</title>
<path fill="none" stroke="black" d="M380.571,-445.087C371.194,-435.449 359.502,-423.432 349.348,-412.997"/>
<polygon fill="black" stroke="black" points="351.764,-410.46 342.282,-405.734 346.747,-415.342 351.764,-410.46"/>
</g>
<!-- MeasureIterator -->
<g id="node13" class="node"><title>MeasureIterator</title>
<ellipse fill="none" stroke="black" cx="669" cy="-389" rx="90.0096" ry="18.3848"/>
<text text-anchor="middle" x="669" y="-385.4" font-family="Times Roman,serif" font-size="14.00">MeasureIterator</text>
</g>
<!-- PieceVisitor&#45;&gt;MeasureIterator -->
<g id="edge12" class="edge"><title>PieceVisitor&#45;&gt;MeasureIterator</title>
<path fill="none" stroke="black" d="M446.137,-449.856C490.391,-437.771 556.318,-419.769 604.995,-406.477"/>
<polygon fill="black" stroke="black" points="606.072,-409.811 614.797,-403.801 604.228,-403.059 606.072,-409.811"/>
</g>
<!-- SequencePlayer -->
<g id="node28" class="node"><title>SequencePlayer</title>
<ellipse fill="none" stroke="black" cx="471" cy="-389" rx="89.8026" ry="18.3848"/>
<text text-anchor="middle" x="471" y="-385.4" font-family="Times Roman,serif" font-size="14.00">SequencePlayer</text>
</g>
<!-- PieceVisitor&#45;&gt;SequencePlayer -->
<g id="edge29" class="edge"><title>PieceVisitor&#45;&gt;SequencePlayer</title>
<path fill="none" stroke="black" d="M415.671,-445.087C424.683,-435.952 435.803,-424.679 445.705,-414.642"/>
<polygon fill="black" stroke="black" points="448.453,-416.839 452.984,-407.262 443.47,-411.924 448.453,-416.839"/>
</g>
<!-- Measure -->
<g id="node14" class="node"><title>Measure</title>
<ellipse fill="none" stroke="black" cx="427" cy="-241" rx="53.033" ry="18.3848"/>
<text text-anchor="middle" x="427" y="-237.4" font-family="Times Roman,serif" font-size="14.00">Measure</text>
</g>
<!-- MeasureIterator&#45;&gt;Measure -->
<g id="edge13" class="edge"><title>MeasureIterator&#45;&gt;Measure</title>
<path fill="none" stroke="black" d="M640.289,-371.441C595.828,-344.25 510.438,-292.028 462.282,-262.578"/>
<polygon fill="black" stroke="black" points="463.814,-259.412 453.457,-257.18 460.162,-265.383 463.814,-259.412"/>
</g>
<!-- Note -->
<g id="node17" class="node"><title>Note</title>
<ellipse fill="none" stroke="black" cx="344" cy="-167" rx="34.8574" ry="18.3848"/>
<text text-anchor="middle" x="344" y="-163.4" font-family="Times Roman,serif" font-size="14.00">Note</text>
</g>
<!-- Measure&#45;&gt;Note -->
<g id="edge17" class="edge"><title>Measure&#45;&gt;Note</title>
<path fill="none" stroke="black" d="M407.33,-223.463C396.083,-213.436 381.846,-200.743 369.721,-189.932"/>
<polygon fill="black" stroke="black" points="371.904,-187.189 362.111,-183.147 367.246,-192.414 371.904,-187.189"/>
</g>
<!-- Pair&lt;Note,Fraction&gt; -->
<g id="node19" class="node"><title>Pair&lt;Note,Fraction&gt;</title>
<ellipse fill="none" stroke="black" cx="510" cy="-167" rx="113.137" ry="18.3848"/>
<text text-anchor="middle" x="510" y="-163.4" font-family="Times Roman,serif" font-size="14.00">Pair&lt;Note,Fraction&gt;</text>
</g>
<!-- Measure&#45;&gt;Pair&lt;Note,Fraction&gt; -->
<g id="edge19" class="edge"><title>Measure&#45;&gt;Pair&lt;Note,Fraction&gt;</title>
<path fill="none" stroke="black" d="M446.67,-223.463C457.108,-214.156 470.123,-202.553 481.634,-192.29"/>
<polygon fill="black" stroke="black" points="484.178,-194.711 489.313,-185.444 479.52,-189.486 484.178,-194.711"/>
</g>
<!-- Voice&#45;&gt;Measure -->
<g id="edge16" class="edge"><title>Voice&#45;&gt;Measure</title>
<path fill="none" stroke="black" d="M402.91,-296.708C406.564,-288.258 410.982,-278.042 415.031,-268.678"/>
<polygon fill="black" stroke="black" points="418.313,-269.906 419.07,-259.338 411.888,-267.128 418.313,-269.906"/>
</g>
<!-- Pitch -->
<g id="node21" class="node"><title>Pitch</title>
<ellipse fill="none" stroke="black" cx="292" cy="-93" rx="36.0624" ry="18.3848"/>
<text text-anchor="middle" x="292" y="-89.4" font-family="Times Roman,serif" font-size="14.00">Pitch</text>
</g>
<!-- Note&#45;&gt;Pitch -->
<g id="edge21" class="edge"><title>Note&#45;&gt;Pitch</title>
<path fill="none" stroke="black" d="M331.677,-149.463C325.266,-140.339 317.303,-129.009 310.198,-118.897"/>
<polygon fill="black" stroke="black" points="312.848,-116.581 304.235,-110.411 307.121,-120.605 312.848,-116.581"/>
</g>
<!-- Fraction -->
<g id="node23" class="node"><title>Fraction</title>
<ellipse fill="none" stroke="black" cx="397" cy="-93" rx="50.9117" ry="18.3848"/>
<text text-anchor="middle" x="397" y="-89.4" font-family="Times Roman,serif" font-size="14.00">Fraction</text>
</g>
<!-- Note&#45;&gt;Fraction -->
<g id="edge23" class="edge"><title>Note&#45;&gt;Fraction</title>
<path fill="none" stroke="black" d="M356.56,-149.463C363,-140.472 370.975,-129.337 378.137,-119.337"/>
<polygon fill="black" stroke="black" points="381.184,-121.093 384.162,-110.925 375.493,-117.017 381.184,-121.093"/>
</g>
<!-- FractionValueException -->
<g id="node24" class="node"><title>FractionValueException</title>
<ellipse fill="none" stroke="black" cx="397" cy="-19" rx="125.865" ry="18.3848"/>
<text text-anchor="middle" x="397" y="-15.4" font-family="Times Roman,serif" font-size="14.00">FractionValueException</text>
</g>
<!-- Fraction&#45;&gt;FractionValueException -->
<g id="edge24" class="edge"><title>Fraction&#45;&gt;FractionValueException</title>
<path fill="none" stroke="black" d="M397,-74.3267C397,-66.2639 397,-56.6477 397,-47.7115"/>
<polygon fill="black" stroke="black" points="400.5,-47.6673 397,-37.6674 393.5,-47.6674 400.5,-47.6673"/>
</g>
<!-- Player -->
<g id="node25" class="node"><title>Player</title>
<ellipse fill="none" stroke="black" cx="358" cy="-537" rx="41.9273" ry="18.3848"/>
<text text-anchor="middle" x="358" y="-533.4" font-family="Times Roman,serif" font-size="14.00">Player</text>
</g>
<!-- Player&#45;&gt;Parser -->
<g id="edge26" class="edge"><title>Player&#45;&gt;Parser</title>
<path fill="none" stroke="black" d="M332.502,-522.025C313.46,-510.841 287.23,-495.437 266.342,-483.169"/>
<polygon fill="black" stroke="black" points="267.855,-479.999 257.46,-477.953 264.31,-486.035 267.855,-479.999"/>
</g>
<!-- Player&#45;&gt;PieceVisitor -->
<g id="edge28" class="edge"><title>Player&#45;&gt;PieceVisitor</title>
<path fill="none" stroke="black" d="M367.888,-518.708C372.503,-510.169 378.094,-499.827 383.198,-490.383"/>
<polygon fill="black" stroke="black" points="386.411,-491.8 388.087,-481.338 380.253,-488.471 386.411,-491.8"/>
</g>
<!-- ParserTest -->
<g id="node29" class="node"><title>ParserTest</title>
<ellipse fill="none" stroke="black" cx="232" cy="-537" rx="62.2254" ry="18.3848"/>
<text text-anchor="middle" x="232" y="-533.4" font-family="Times Roman,serif" font-size="14.00">ParserTest</text>
</g>
<!-- ParserTest&#45;&gt;Parser -->
<g id="edge31" class="edge"><title>ParserTest&#45;&gt;Parser</title>
<path fill="none" stroke="black" d="M232,-518.327C232,-510.264 232,-500.648 232,-491.711"/>
<polygon fill="black" stroke="black" points="235.5,-491.667 232,-481.667 228.5,-491.667 235.5,-491.667"/>
</g>
<!-- MeasureIteratorTest -->
<g id="node31" class="node"><title>MeasureIteratorTest</title>
<ellipse fill="none" stroke="black" cx="669" cy="-463" rx="109.81" ry="18.3848"/>
<text text-anchor="middle" x="669" y="-459.4" font-family="Times Roman,serif" font-size="14.00">MeasureIteratorTest</text>
</g>
<!-- MeasureIteratorTest&#45;&gt;MeasureIterator -->
<g id="edge33" class="edge"><title>MeasureIteratorTest&#45;&gt;MeasureIterator</title>
<path fill="none" stroke="black" d="M669,-444.327C669,-436.264 669,-426.648 669,-417.711"/>
<polygon fill="black" stroke="black" points="672.5,-417.667 669,-407.667 665.5,-417.667 672.5,-417.667"/>
</g>
</g>
</svg>
