<?xml version="1.0" encoding="UTF-8" standalone="no"?>
<!DOCTYPE svg PUBLIC "-//W3C//DTD SVG 1.1//EN"
 "http://www.w3.org/Graphics/SVG/1.1/DTD/svg11.dtd">
<!-- Generated by graphviz version 2.26.3 (20100126.1600)
 -->
<!-- Title: Classes Pages: 1 -->
<svg width="733pt" height="716pt"
 viewBox="0.00 0.00 733.05 716.00" xmlns="http://www.w3.org/2000/svg" xmlns:xlink="http://www.w3.org/1999/xlink">
<g id="graph1" class="graph" transform="scale(1 1) rotate(0) translate(4 712)">
<title>Classes</title>
<polygon fill="white" stroke="white" points="-4,5 -4,-712 730.045,-712 730.045,5 -4,5"/>
<g id="graph2" class="cluster"><title>cluster_lexer</title>
<polygon fill="none" stroke="black" points="130,-318 130,-620 270,-620 270,-318 130,-318"/>
<text text-anchor="middle" x="200" y="-603.4" font-family="Times Roman,serif" font-size="14.00">lexer</text>
</g>
<g id="graph3" class="cluster"><title>cluster_utilities</title>
<polygon fill="none" stroke="black" points="8,-8 8,-162 370,-162 370,-8 8,-8"/>
<text text-anchor="middle" x="189" y="-145.4" font-family="Times Roman,serif" font-size="14.00">utilities</text>
</g>
<g id="graph4" class="cluster"><title>cluster_sound</title>
<polygon fill="none" stroke="black" points="378,-8 378,-162 702,-162 702,-8 378,-8"/>
<text text-anchor="middle" x="540" y="-145.4" font-family="Times Roman,serif" font-size="14.00">sound</text>
</g>
<g id="graph5" class="cluster"><title>cluster_player</title>
<polygon fill="none" stroke="black" points="278,-170 278,-700 626,-700 626,-170 278,-170"/>
<text text-anchor="middle" x="452" y="-683.4" font-family="Times Roman,serif" font-size="14.00">player</text>
</g>
<!-- Lexer -->
<g id="node2" class="node"><title>Lexer</title>
<ellipse fill="none" stroke="black" cx="203" cy="-493" rx="38.8909" ry="18.3848"/>
<text text-anchor="middle" x="203" y="-489.4" font-family="Times Roman,serif" font-size="14.00">Lexer</text>
</g>
<!-- Token -->
<g id="node4" class="node"><title>Token</title>
<ellipse fill="none" stroke="black" cx="201" cy="-419" rx="39.0967" ry="18.3848"/>
<text text-anchor="middle" x="201" y="-415.4" font-family="Times Roman,serif" font-size="14.00">Token</text>
</g>
<!-- Lexer&#45;&gt;Token -->
<g id="edge3" class="edge"><title>Lexer&#45;&gt;Token</title>
<path fill="none" stroke="black" d="M202.495,-474.327C202.277,-466.264 202.018,-456.648 201.776,-447.711"/>
<polygon fill="black" stroke="black" points="205.274,-447.569 201.505,-437.667 198.276,-447.758 205.274,-447.569"/>
</g>
<!-- TokenType -->
<g id="node5" class="node"><title>TokenType</title>
<ellipse fill="none" stroke="black" cx="200" cy="-345" rx="62.2254" ry="18.3848"/>
<text text-anchor="middle" x="200" y="-341.4" font-family="Times Roman,serif" font-size="14.00">TokenType</text>
</g>
<!-- Token&#45;&gt;TokenType -->
<g id="edge4" class="edge"><title>Token&#45;&gt;TokenType</title>
<path fill="none" stroke="black" d="M200.748,-400.327C200.639,-392.264 200.509,-382.648 200.388,-373.711"/>
<polygon fill="black" stroke="black" points="203.887,-373.619 200.252,-363.667 196.888,-373.714 203.887,-373.619"/>
</g>
<!-- LexerTest -->
<g id="node6" class="node"><title>LexerTest</title>
<ellipse fill="none" stroke="black" cx="203" cy="-567" rx="58.1882" ry="18.3848"/>
<text text-anchor="middle" x="203" y="-563.4" font-family="Times Roman,serif" font-size="14.00">LexerTest</text>
</g>
<!-- LexerTest&#45;&gt;Lexer -->
<g id="edge41" class="edge"><title>LexerTest&#45;&gt;Lexer</title>
<path fill="none" stroke="black" d="M203,-548.327C203,-540.264 203,-530.648 203,-521.711"/>
<polygon fill="black" stroke="black" points="206.5,-521.667 203,-511.667 199.5,-521.667 206.5,-521.667"/>
</g>
<!-- Fraction -->
<g id="node8" class="node"><title>Fraction</title>
<ellipse fill="none" stroke="black" cx="311" cy="-109" rx="50.9117" ry="18.3848"/>
<text text-anchor="middle" x="311" y="-105.4" font-family="Times Roman,serif" font-size="14.00">Fraction</text>
</g>
<!-- FractionValueException -->
<g id="node10" class="node"><title>FractionValueException</title>
<ellipse fill="none" stroke="black" cx="236" cy="-35" rx="125.865" ry="18.3848"/>
<text text-anchor="middle" x="236" y="-31.4" font-family="Times Roman,serif" font-size="14.00">FractionValueException</text>
</g>
<!-- Fraction&#45;&gt;FractionValueException -->
<g id="edge7" class="edge"><title>Fraction&#45;&gt;FractionValueException</title>
<path fill="none" stroke="black" d="M293.226,-91.463C283.884,-82.2459 272.26,-70.7761 261.932,-60.5865"/>
<polygon fill="black" stroke="black" points="264.27,-57.9758 254.693,-53.4437 259.353,-62.9587 264.27,-57.9758"/>
</g>
<!-- Pair&lt;Note,Fraction&gt; -->
<g id="node11" class="node"><title>Pair&lt;Note,Fraction&gt;</title>
<ellipse fill="none" stroke="black" cx="129" cy="-109" rx="113.137" ry="18.3848"/>
<text text-anchor="middle" x="129" y="-105.4" font-family="Times Roman,serif" font-size="14.00">Pair&lt;Note,Fraction&gt;</text>
</g>
<!-- Pitch -->
<g id="node13" class="node"><title>Pitch</title>
<ellipse fill="none" stroke="black" cx="658" cy="-109" rx="36.0624" ry="18.3848"/>
<text text-anchor="middle" x="658" y="-105.4" font-family="Times Roman,serif" font-size="14.00">Pitch</text>
</g>
<!-- SequencePlayer -->
<g id="node14" class="node"><title>SequencePlayer</title>
<ellipse fill="none" stroke="black" cx="549" cy="-35" rx="89.8026" ry="18.3848"/>
<text text-anchor="middle" x="549" y="-31.4" font-family="Times Roman,serif" font-size="14.00">SequencePlayer</text>
</g>
<!-- SequencePlayerTest -->
<g id="node15" class="node"><title>SequencePlayerTest</title>
<ellipse fill="none" stroke="black" cx="495" cy="-109" rx="109.101" ry="18.3848"/>
<text text-anchor="middle" x="495" y="-105.4" font-family="Times Roman,serif" font-size="14.00">SequencePlayerTest</text>
</g>
<!-- SequencePlayerTest&#45;&gt;SequencePlayer -->
<g id="edge45" class="edge"><title>SequencePlayerTest&#45;&gt;SequencePlayer</title>
<path fill="none" stroke="black" d="M508.626,-90.3267C514.942,-81.6725 522.563,-71.2286 529.475,-61.757"/>
<polygon fill="black" stroke="black" points="532.497,-63.5521 535.565,-53.411 526.843,-59.4258 532.497,-63.5521"/>
</g>
<!-- Parser -->
<g id="node17" class="node"><title>Parser</title>
<ellipse fill="none" stroke="black" cx="391" cy="-567" rx="41.9273" ry="18.3848"/>
<text text-anchor="middle" x="391" y="-563.4" font-family="Times Roman,serif" font-size="14.00">Parser</text>
</g>
<!-- Parser&#45;&gt;Lexer -->
<g id="edge30" class="edge"><title>Parser&#45;&gt;Lexer</title>
<path fill="none" stroke="black" d="M359.533,-554.614C327.334,-541.94 277.219,-522.214 242.401,-508.509"/>
<polygon fill="black" stroke="black" points="243.601,-505.22 233.014,-504.814 241.037,-511.734 243.601,-505.22"/>
</g>
<!-- Piece -->
<g id="node20" class="node"><title>Piece</title>
<ellipse fill="none" stroke="black" cx="507" cy="-493" rx="36.977" ry="18.3848"/>
<text text-anchor="middle" x="507" y="-489.4" font-family="Times Roman,serif" font-size="14.00">Piece</text>
</g>
<!-- Parser&#45;&gt;Piece -->
<g id="edge34" class="edge"><title>Parser&#45;&gt;Piece</title>
<path fill="none" stroke="black" d="M415.035,-551.667C432.451,-540.557 456.175,-525.423 475.165,-513.309"/>
<polygon fill="black" stroke="black" points="477.239,-516.137 483.787,-507.808 473.474,-510.236 477.239,-516.137"/>
</g>
<!-- CircleOfFifths -->
<g id="node21" class="node"><title>CircleOfFifths</title>
<ellipse fill="none" stroke="black" cx="376" cy="-493" rx="75.8684" ry="18.3848"/>
<text text-anchor="middle" x="376" y="-489.4" font-family="Times Roman,serif" font-size="14.00">CircleOfFifths</text>
</g>
<!-- Parser&#45;&gt;CircleOfFifths -->
<g id="edge32" class="edge"><title>Parser&#45;&gt;CircleOfFifths</title>
<path fill="none" stroke="black" d="M387.215,-548.327C385.581,-540.264 383.631,-530.648 381.82,-521.711"/>
<polygon fill="black" stroke="black" points="385.201,-520.773 379.784,-511.667 378.34,-522.163 385.201,-520.773"/>
</g>
<!-- Player -->
<g id="node18" class="node"><title>Player</title>
<ellipse fill="none" stroke="black" cx="456" cy="-647" rx="41.9273" ry="18.3848"/>
<text text-anchor="middle" x="456" y="-643.4" font-family="Times Roman,serif" font-size="14.00">Player</text>
</g>
<!-- Player&#45;&gt;Parser -->
<g id="edge36" class="edge"><title>Player&#45;&gt;Parser</title>
<path fill="none" stroke="black" d="M441.574,-629.245C432.762,-618.399 421.349,-604.353 411.596,-592.349"/>
<polygon fill="black" stroke="black" points="414.184,-589.984 405.162,-584.43 408.751,-594.398 414.184,-589.984"/>
</g>
<!-- PieceVisitor -->
<g id="node19" class="node"><title>PieceVisitor</title>
<ellipse fill="none" stroke="black" cx="535" cy="-567" rx="68.0887" ry="18.3848"/>
<text text-anchor="middle" x="535" y="-563.4" font-family="Times Roman,serif" font-size="14.00">PieceVisitor</text>
</g>
<!-- Player&#45;&gt;PieceVisitor -->
<g id="edge38" class="edge"><title>Player&#45;&gt;PieceVisitor</title>
<path fill="none" stroke="black" d="M472.754,-630.034C483.556,-619.095 497.801,-604.67 509.938,-592.379"/>
<polygon fill="black" stroke="black" points="512.636,-594.628 517.172,-585.053 507.655,-589.709 512.636,-594.628"/>
</g>
<!-- PieceVisitor&#45;&gt;SequencePlayer -->
<g id="edge39" class="edge"><title>PieceVisitor&#45;&gt;SequencePlayer</title>
<path fill="none" stroke="black" d="M580.745,-553.176C636.106,-533.279 722,-490.834 722,-419 722,-419 722,-419 722,-197 722,-148.701 734.18,-126.887 703,-90 691.231,-76.0775 652.514,-62.2822 616.848,-51.9903"/>
<polygon fill="black" stroke="black" points="617.469,-48.5289 606.894,-49.1831 615.569,-55.2661 617.469,-48.5289"/>
</g>
<!-- PieceVisitor&#45;&gt;Piece -->
<g id="edge11" class="edge"><title>PieceVisitor&#45;&gt;Piece</title>
<path fill="none" stroke="black" d="M527.934,-548.327C524.794,-540.026 521.03,-530.078 517.565,-520.921"/>
<polygon fill="black" stroke="black" points="520.779,-519.525 513.966,-511.411 514.232,-522.003 520.779,-519.525"/>
</g>
<!-- MeasureIterator -->
<g id="node23" class="node"><title>MeasureIterator</title>
<ellipse fill="none" stroke="black" cx="432" cy="-345" rx="90.0096" ry="18.3848"/>
<text text-anchor="middle" x="432" y="-341.4" font-family="Times Roman,serif" font-size="14.00">MeasureIterator</text>
</g>
<!-- PieceVisitor&#45;&gt;MeasureIterator -->
<g id="edge13" class="edge"><title>PieceVisitor&#45;&gt;MeasureIterator</title>
<path fill="none" stroke="black" d="M553.967,-549.067C585.641,-516.927 642.494,-448.361 607,-400 594.745,-383.302 549.765,-369.374 508.479,-359.711"/>
<polygon fill="black" stroke="black" points="509.167,-356.278 498.64,-357.47 507.613,-363.104 509.167,-356.278"/>
</g>
<!-- Voice -->
<g id="node22" class="node"><title>Voice</title>
<ellipse fill="none" stroke="black" cx="323" cy="-419" rx="36.977" ry="18.3848"/>
<text text-anchor="middle" x="323" y="-415.4" font-family="Times Roman,serif" font-size="14.00">Voice</text>
</g>
<!-- Piece&#45;&gt;Voice -->
<g id="edge20" class="edge"><title>Piece&#45;&gt;Voice</title>
<path fill="none" stroke="black" d="M478.324,-481.059C472.594,-478.7 466.612,-476.257 461,-474 420.263,-457.618 409.737,-454.382 369,-438 366.457,-436.977 363.838,-435.917 361.201,-434.843"/>
<polygon fill="black" stroke="black" points="362.256,-431.493 351.676,-430.941 359.603,-437.97 362.256,-431.493"/>
</g>
<!-- Voice&#45;&gt;MeasureIterator -->
<g id="edge18" class="edge"><title>Voice&#45;&gt;MeasureIterator</title>
<path fill="none" stroke="black" d="M345.058,-404.025C359.996,-393.883 380.048,-380.27 397.13,-368.674"/>
<polygon fill="black" stroke="black" points="399.441,-371.335 405.749,-362.822 395.509,-365.543 399.441,-371.335"/>
</g>
<!-- Measure -->
<g id="node24" class="node"><title>Measure</title>
<ellipse fill="none" stroke="black" cx="386" cy="-271" rx="53.033" ry="18.3848"/>
<text text-anchor="middle" x="386" y="-267.4" font-family="Times Roman,serif" font-size="14.00">Measure</text>
</g>
<!-- Voice&#45;&gt;Measure -->
<g id="edge21" class="edge"><title>Voice&#45;&gt;Measure</title>
<path fill="none" stroke="black" d="M320.934,-400.369C319.442,-379.204 319.621,-344.209 333,-318 337.697,-308.799 345.018,-300.576 352.735,-293.68"/>
<polygon fill="black" stroke="black" points="355.039,-296.316 360.502,-287.238 350.57,-290.928 355.039,-296.316"/>
</g>
<!-- MeasureIterator&#45;&gt;Measure -->
<g id="edge14" class="edge"><title>MeasureIterator&#45;&gt;Measure</title>
<path fill="none" stroke="black" d="M414.713,-326.708C408.619,-318.233 402.034,-307.982 396.602,-298.596"/>
<polygon fill="black" stroke="black" points="399.523,-296.646 391.614,-289.596 393.4,-300.039 399.523,-296.646"/>
</g>
<!-- Measure&#45;&gt;Pair&lt;Note,Fraction&gt; -->
<g id="edge24" class="edge"><title>Measure&#45;&gt;Pair&lt;Note,Fraction&gt;</title>
<path fill="none" stroke="black" d="M359.943,-254.575C314.103,-225.68 218.906,-165.672 166.174,-132.433"/>
<polygon fill="black" stroke="black" points="167.792,-129.315 157.466,-126.944 164.059,-135.237 167.792,-129.315"/>
</g>
<!-- Measure&#45;&gt;MeasureIterator -->
<g id="edge16" class="edge"><title>Measure&#45;&gt;MeasureIterator</title>
<path fill="none" stroke="black" d="M402.822,-288.648C409.057,-297.26 415.853,-307.819 421.43,-317.459"/>
<polygon fill="black" stroke="black" points="418.436,-319.277 426.345,-326.327 424.558,-315.884 418.436,-319.277"/>
</g>
<!-- Note -->
<g id="node25" class="node"><title>Note</title>
<ellipse fill="none" stroke="black" cx="386" cy="-197" rx="34.8574" ry="18.3848"/>
<text text-anchor="middle" x="386" y="-193.4" font-family="Times Roman,serif" font-size="14.00">Note</text>
</g>
<!-- Measure&#45;&gt;Note -->
<g id="edge22" class="edge"><title>Measure&#45;&gt;Note</title>
<path fill="none" stroke="black" d="M386,-252.327C386,-244.264 386,-234.648 386,-225.711"/>
<polygon fill="black" stroke="black" points="389.5,-225.667 386,-215.667 382.5,-225.667 389.5,-225.667"/>
</g>
<!-- Note&#45;&gt;Fraction -->
<g id="edge28" class="edge"><title>Note&#45;&gt;Fraction</title>
<path fill="none" stroke="black" d="M371.539,-180.033C360.549,-167.138 345.248,-149.185 332.779,-134.554"/>
<polygon fill="black" stroke="black" points="335.339,-132.162 326.189,-126.821 330.011,-136.703 335.339,-132.162"/>
</g>
<!-- Note&#45;&gt;Pitch -->
<g id="edge26" class="edge"><title>Note&#45;&gt;Pitch</title>
<path fill="none" stroke="black" d="M420.821,-194.606C476.033,-190.32 580.72,-180.052 613,-162 624.326,-155.666 634.075,-145.305 641.575,-135.416"/>
<polygon fill="black" stroke="black" points="644.641,-137.143 647.57,-126.961 638.931,-133.094 644.641,-137.143"/>
</g>
<!-- MeasureIteratorTest -->
<g id="node26" class="node"><title>MeasureIteratorTest</title>
<ellipse fill="none" stroke="black" cx="488" cy="-419" rx="109.81" ry="18.3848"/>
<text text-anchor="middle" x="488" y="-415.4" font-family="Times Roman,serif" font-size="14.00">MeasureIteratorTest</text>
</g>
<!-- MeasureIteratorTest&#45;&gt;MeasureIterator -->
<g id="edge43" class="edge"><title>MeasureIteratorTest&#45;&gt;MeasureIterator</title>
<path fill="none" stroke="black" d="M473.869,-400.327C467.253,-391.584 459.255,-381.015 452.029,-371.467"/>
<polygon fill="black" stroke="black" points="454.758,-369.273 445.933,-363.411 449.176,-373.497 454.758,-369.273"/>
</g>
</g>
</svg>
