<?xml version="1.0" encoding="UTF-8" standalone="no"?>
<!DOCTYPE svg PUBLIC "-//W3C//DTD SVG 1.1//EN"
 "http://www.w3.org/Graphics/SVG/1.1/DTD/svg11.dtd">
<!-- Generated by graphviz version 2.26.3 (20100126.1600)
 -->
<!-- Title: Classes Pages: 1 -->
<svg width="735pt" height="722pt"
 viewBox="0.00 0.00 734.96 722.00" xmlns="http://www.w3.org/2000/svg" xmlns:xlink="http://www.w3.org/1999/xlink">
<g id="graph1" class="graph" transform="scale(1 1) rotate(0) translate(4 718)">
<title>Classes</title>
<polygon fill="white" stroke="white" points="-4,5 -4,-718 731.957,-718 731.957,5 -4,5"/>
<g id="graph2" class="cluster"><title>cluster_lexer</title>
<polygon fill="none" stroke="black" points="24,-318 24,-626 164,-626 164,-318 24,-318"/>
<text text-anchor="middle" x="94" y="-609.4" font-family="Times Roman,serif" font-size="14.00">lexer</text>
</g>
<g id="graph3" class="cluster"><title>cluster_utilities</title>
<polygon fill="none" stroke="black" points="8,-8 8,-162 370,-162 370,-8 8,-8"/>
<text text-anchor="middle" x="189" y="-145.4" font-family="Times Roman,serif" font-size="14.00">utilities</text>
</g>
<g id="graph4" class="cluster"><title>cluster_sound</title>
<polygon fill="none" stroke="black" points="378,-8 378,-162 702,-162 702,-8 378,-8"/>
<text text-anchor="middle" x="540" y="-145.4" font-family="Times Roman,serif" font-size="14.00">sound</text>
</g>
<g id="graph5" class="cluster"><title>cluster_music</title>
<polygon fill="none" stroke="black" points="528,-466 528,-546 696,-546 696,-466 528,-466"/>
<text text-anchor="middle" x="612" y="-529.4" font-family="Times Roman,serif" font-size="14.00">music</text>
</g>
<g id="graph6" class="cluster"><title>cluster_player</title>
<polygon fill="none" stroke="black" points="172,-170 172,-706 520,-706 520,-170 172,-170"/>
<text text-anchor="middle" x="346" y="-689.4" font-family="Times Roman,serif" font-size="14.00">player</text>
</g>
<!-- Lexer -->
<g id="node2" class="node"><title>Lexer</title>
<ellipse fill="none" stroke="black" cx="97" cy="-493" rx="38.8909" ry="18.3848"/>
<text text-anchor="middle" x="97" y="-489.4" font-family="Times Roman,serif" font-size="14.00">Lexer</text>
</g>
<!-- Token -->
<g id="node4" class="node"><title>Token</title>
<ellipse fill="none" stroke="black" cx="95" cy="-419" rx="39.0967" ry="18.3848"/>
<text text-anchor="middle" x="95" y="-415.4" font-family="Times Roman,serif" font-size="14.00">Token</text>
</g>
<!-- Lexer&#45;&gt;Token -->
<g id="edge3" class="edge"><title>Lexer&#45;&gt;Token</title>
<path fill="none" stroke="black" d="M96.4953,-474.327C96.2774,-466.264 96.0175,-456.648 95.776,-447.711"/>
<polygon fill="black" stroke="black" points="99.2735,-447.569 95.5045,-437.667 92.2761,-447.758 99.2735,-447.569"/>
</g>
<!-- TokenType -->
<g id="node5" class="node"><title>TokenType</title>
<ellipse fill="none" stroke="black" cx="94" cy="-345" rx="62.2254" ry="18.3848"/>
<text text-anchor="middle" x="94" y="-341.4" font-family="Times Roman,serif" font-size="14.00">TokenType</text>
</g>
<!-- Token&#45;&gt;TokenType -->
<g id="edge4" class="edge"><title>Token&#45;&gt;TokenType</title>
<path fill="none" stroke="black" d="M94.7477,-400.327C94.6387,-392.264 94.5088,-382.648 94.388,-373.711"/>
<polygon fill="black" stroke="black" points="97.8872,-373.619 94.2523,-363.667 90.8878,-373.714 97.8872,-373.619"/>
</g>
<!-- LexerTest -->
<g id="node6" class="node"><title>LexerTest</title>
<ellipse fill="none" stroke="black" cx="97" cy="-573" rx="58.1882" ry="18.3848"/>
<text text-anchor="middle" x="97" y="-569.4" font-family="Times Roman,serif" font-size="14.00">LexerTest</text>
</g>
<!-- LexerTest&#45;&gt;Lexer -->
<g id="edge42" class="edge"><title>LexerTest&#45;&gt;Lexer</title>
<path fill="none" stroke="black" d="M97,-554.445C97,-544.821 97,-532.846 97,-522.03"/>
<polygon fill="black" stroke="black" points="100.5,-521.731 97,-511.731 93.5001,-521.731 100.5,-521.731"/>
</g>
<!-- Fraction -->
<g id="node8" class="node"><title>Fraction</title>
<ellipse fill="none" stroke="black" cx="311" cy="-109" rx="50.9117" ry="18.3848"/>
<text text-anchor="middle" x="311" y="-105.4" font-family="Times Roman,serif" font-size="14.00">Fraction</text>
</g>
<!-- FractionValueException -->
<g id="node10" class="node"><title>FractionValueException</title>
<ellipse fill="none" stroke="black" cx="236" cy="-35" rx="125.865" ry="18.3848"/>
<text text-anchor="middle" x="236" y="-31.4" font-family="Times Roman,serif" font-size="14.00">FractionValueException</text>
</g>
<!-- Fraction&#45;&gt;FractionValueException -->
<g id="edge7" class="edge"><title>Fraction&#45;&gt;FractionValueException</title>
<path fill="none" stroke="black" d="M293.226,-91.463C283.884,-82.2459 272.26,-70.7761 261.932,-60.5865"/>
<polygon fill="black" stroke="black" points="264.27,-57.9758 254.693,-53.4437 259.353,-62.9587 264.27,-57.9758"/>
</g>
<!-- Pair&lt;Note,Fraction&gt; -->
<g id="node11" class="node"><title>Pair&lt;Note,Fraction&gt;</title>
<ellipse fill="none" stroke="black" cx="129" cy="-109" rx="113.137" ry="18.3848"/>
<text text-anchor="middle" x="129" y="-105.4" font-family="Times Roman,serif" font-size="14.00">Pair&lt;Note,Fraction&gt;</text>
</g>
<!-- Pitch -->
<g id="node13" class="node"><title>Pitch</title>
<ellipse fill="none" stroke="black" cx="658" cy="-109" rx="36.0624" ry="18.3848"/>
<text text-anchor="middle" x="658" y="-105.4" font-family="Times Roman,serif" font-size="14.00">Pitch</text>
</g>
<!-- SequencePlayer -->
<g id="node14" class="node"><title>SequencePlayer</title>
<ellipse fill="none" stroke="black" cx="549" cy="-35" rx="89.8026" ry="18.3848"/>
<text text-anchor="middle" x="549" y="-31.4" font-family="Times Roman,serif" font-size="14.00">SequencePlayer</text>
</g>
<!-- SequencePlayerTest -->
<g id="node15" class="node"><title>SequencePlayerTest</title>
<ellipse fill="none" stroke="black" cx="495" cy="-109" rx="109.101" ry="18.3848"/>
<text text-anchor="middle" x="495" y="-105.4" font-family="Times Roman,serif" font-size="14.00">SequencePlayerTest</text>
</g>
<!-- SequencePlayerTest&#45;&gt;SequencePlayer -->
<g id="edge46" class="edge"><title>SequencePlayerTest&#45;&gt;SequencePlayer</title>
<path fill="none" stroke="black" d="M508.626,-90.3267C514.942,-81.6725 522.563,-71.2286 529.475,-61.757"/>
<polygon fill="black" stroke="black" points="532.497,-63.5521 535.565,-53.411 526.843,-59.4258 532.497,-63.5521"/>
</g>
<!-- CircleOfFifths -->
<g id="node17" class="node"><title>CircleOfFifths</title>
<ellipse fill="none" stroke="black" cx="612" cy="-493" rx="75.8684" ry="18.3848"/>
<text text-anchor="middle" x="612" y="-489.4" font-family="Times Roman,serif" font-size="14.00">CircleOfFifths</text>
</g>
<!-- Parser -->
<g id="node19" class="node"><title>Parser</title>
<ellipse fill="none" stroke="black" cx="316" cy="-573" rx="41.9273" ry="18.3848"/>
<text text-anchor="middle" x="316" y="-569.4" font-family="Times Roman,serif" font-size="14.00">Parser</text>
</g>
<!-- Parser&#45;&gt;Lexer -->
<g id="edge31" class="edge"><title>Parser&#45;&gt;Lexer</title>
<path fill="none" stroke="black" d="M274.32,-570.518C243.819,-567.5 202.002,-560.813 168,-546 151.458,-538.794 135.168,-527.063 122.372,-516.468"/>
<polygon fill="black" stroke="black" points="124.373,-513.574 114.501,-509.728 119.821,-518.891 124.373,-513.574"/>
</g>
<!-- Parser&#45;&gt;CircleOfFifths -->
<g id="edge33" class="edge"><title>Parser&#45;&gt;CircleOfFifths</title>
<path fill="none" stroke="black" d="M346.297,-559.99C353.003,-557.599 360.153,-555.415 367,-554 401.211,-546.931 490.59,-556.207 524,-546 544.436,-539.757 565.019,-527.748 581.134,-516.739"/>
<polygon fill="black" stroke="black" points="583.445,-519.392 589.599,-510.768 579.41,-513.672 583.445,-519.392"/>
</g>
<!-- Piece -->
<g id="node22" class="node"><title>Piece</title>
<ellipse fill="none" stroke="black" cx="316" cy="-493" rx="36.977" ry="18.3848"/>
<text text-anchor="middle" x="316" y="-489.4" font-family="Times Roman,serif" font-size="14.00">Piece</text>
</g>
<!-- Parser&#45;&gt;Piece -->
<g id="edge35" class="edge"><title>Parser&#45;&gt;Piece</title>
<path fill="none" stroke="black" d="M316,-554.445C316,-544.821 316,-532.846 316,-522.03"/>
<polygon fill="black" stroke="black" points="319.5,-521.731 316,-511.731 312.5,-521.731 319.5,-521.731"/>
</g>
<!-- Player -->
<g id="node20" class="node"><title>Player</title>
<ellipse fill="none" stroke="black" cx="380" cy="-653" rx="41.9273" ry="18.3848"/>
<text text-anchor="middle" x="380" y="-649.4" font-family="Times Roman,serif" font-size="14.00">Player</text>
</g>
<!-- Player&#45;&gt;Parser -->
<g id="edge37" class="edge"><title>Player&#45;&gt;Parser</title>
<path fill="none" stroke="black" d="M365.796,-635.245C357.179,-624.474 346.037,-610.546 336.478,-598.598"/>
<polygon fill="black" stroke="black" points="339.144,-596.327 330.164,-590.705 333.678,-600.7 339.144,-596.327"/>
</g>
<!-- PieceVisitor -->
<g id="node21" class="node"><title>PieceVisitor</title>
<ellipse fill="none" stroke="black" cx="444" cy="-573" rx="68.0887" ry="18.3848"/>
<text text-anchor="middle" x="444" y="-569.4" font-family="Times Roman,serif" font-size="14.00">PieceVisitor</text>
</g>
<!-- Player&#45;&gt;PieceVisitor -->
<g id="edge39" class="edge"><title>Player&#45;&gt;PieceVisitor</title>
<path fill="none" stroke="black" d="M394.204,-635.245C402.701,-624.623 413.654,-610.933 423.123,-599.097"/>
<polygon fill="black" stroke="black" points="425.878,-601.255 429.392,-591.26 420.412,-596.882 425.878,-601.255"/>
</g>
<!-- PieceVisitor&#45;&gt;SequencePlayer -->
<g id="edge40" class="edge"><title>PieceVisitor&#45;&gt;SequencePlayer</title>
<path fill="none" stroke="black" d="M511.332,-570.051C582.525,-566.285 686.437,-558.691 700,-546 741.83,-506.861 722,-476.285 722,-419 722,-419 722,-419 722,-197 722,-148.701 734.18,-126.887 703,-90 691.231,-76.0775 652.514,-62.2822 616.848,-51.9903"/>
<polygon fill="black" stroke="black" points="617.469,-48.5289 606.894,-49.1831 615.569,-55.2661 617.469,-48.5289"/>
</g>
<!-- PieceVisitor&#45;&gt;Piece -->
<g id="edge12" class="edge"><title>PieceVisitor&#45;&gt;Piece</title>
<path fill="none" stroke="black" d="M416.854,-556.034C396.692,-543.432 369.126,-526.204 347.909,-512.943"/>
<polygon fill="black" stroke="black" points="349.58,-509.86 339.245,-507.528 345.87,-515.796 349.58,-509.86"/>
</g>
<!-- MeasureIterator -->
<g id="node24" class="node"><title>MeasureIterator</title>
<ellipse fill="none" stroke="black" cx="326" cy="-345" rx="90.0096" ry="18.3848"/>
<text text-anchor="middle" x="326" y="-341.4" font-family="Times Roman,serif" font-size="14.00">MeasureIterator</text>
</g>
<!-- PieceVisitor&#45;&gt;MeasureIterator -->
<g id="edge14" class="edge"><title>PieceVisitor&#45;&gt;MeasureIterator</title>
<path fill="none" stroke="black" d="M459.856,-554.885C487.16,-521.407 536.831,-448.82 501,-400 488.745,-383.302 443.765,-369.374 402.479,-359.711"/>
<polygon fill="black" stroke="black" points="403.167,-356.278 392.64,-357.47 401.613,-363.104 403.167,-356.278"/>
</g>
<!-- Voice -->
<g id="node23" class="node"><title>Voice</title>
<ellipse fill="none" stroke="black" cx="217" cy="-419" rx="36.977" ry="18.3848"/>
<text text-anchor="middle" x="217" y="-415.4" font-family="Times Roman,serif" font-size="14.00">Voice</text>
</g>
<!-- Piece&#45;&gt;Voice -->
<g id="edge21" class="edge"><title>Piece&#45;&gt;Voice</title>
<path fill="none" stroke="black" d="M295.005,-477.307C280.733,-466.639 261.667,-452.387 245.956,-440.644"/>
<polygon fill="black" stroke="black" points="247.731,-437.601 237.626,-434.417 243.54,-443.208 247.731,-437.601"/>
</g>
<!-- Voice&#45;&gt;MeasureIterator -->
<g id="edge19" class="edge"><title>Voice&#45;&gt;MeasureIterator</title>
<path fill="none" stroke="black" d="M239.058,-404.025C253.996,-393.883 274.048,-380.27 291.13,-368.674"/>
<polygon fill="black" stroke="black" points="293.441,-371.335 299.749,-362.822 289.509,-365.543 293.441,-371.335"/>
</g>
<!-- Measure -->
<g id="node25" class="node"><title>Measure</title>
<ellipse fill="none" stroke="black" cx="316" cy="-271" rx="53.033" ry="18.3848"/>
<text text-anchor="middle" x="316" y="-267.4" font-family="Times Roman,serif" font-size="14.00">Measure</text>
</g>
<!-- Voice&#45;&gt;Measure -->
<g id="edge22" class="edge"><title>Voice&#45;&gt;Measure</title>
<path fill="none" stroke="black" d="M213.924,-400.497C211.351,-378.814 210.388,-342.714 227,-318 236.283,-304.189 250.976,-294.15 265.77,-286.986"/>
<polygon fill="black" stroke="black" points="267.241,-290.163 274.946,-282.89 264.388,-283.77 267.241,-290.163"/>
</g>
<!-- MeasureIterator&#45;&gt;Measure -->
<g id="edge15" class="edge"><title>MeasureIterator&#45;&gt;Measure</title>
<path fill="none" stroke="black" d="M317.524,-326.327C315.67,-318.264 314.156,-308.648 313.283,-299.711"/>
<polygon fill="black" stroke="black" points="316.769,-299.395 312.571,-289.667 309.787,-299.89 316.769,-299.395"/>
</g>
<!-- Measure&#45;&gt;Pair&lt;Note,Fraction&gt; -->
<g id="edge25" class="edge"><title>Measure&#45;&gt;Pair&lt;Note,Fraction&gt;</title>
<path fill="none" stroke="black" d="M295.988,-253.663C262.737,-224.858 195.992,-167.036 157.721,-133.881"/>
<polygon fill="black" stroke="black" points="159.859,-131.102 150.009,-127.2 155.275,-136.393 159.859,-131.102"/>
</g>
<!-- Measure&#45;&gt;MeasureIterator -->
<g id="edge17" class="edge"><title>Measure&#45;&gt;MeasureIterator</title>
<path fill="none" stroke="black" d="M324.415,-289.411C326.291,-297.501 327.825,-307.193 328.709,-316.202"/>
<polygon fill="black" stroke="black" points="325.228,-316.6 329.429,-326.327 332.21,-316.104 325.228,-316.6"/>
</g>
<!-- Note -->
<g id="node26" class="node"><title>Note</title>
<ellipse fill="none" stroke="black" cx="316" cy="-197" rx="34.8574" ry="18.3848"/>
<text text-anchor="middle" x="316" y="-193.4" font-family="Times Roman,serif" font-size="14.00">Note</text>
</g>
<!-- Measure&#45;&gt;Note -->
<g id="edge23" class="edge"><title>Measure&#45;&gt;Note</title>
<path fill="none" stroke="black" d="M316,-252.327C316,-244.264 316,-234.648 316,-225.711"/>
<polygon fill="black" stroke="black" points="319.5,-225.667 316,-215.667 312.5,-225.667 319.5,-225.667"/>
</g>
<!-- Note&#45;&gt;Fraction -->
<g id="edge29" class="edge"><title>Note&#45;&gt;Fraction</title>
<path fill="none" stroke="black" d="M314.94,-178.337C314.27,-166.554 313.392,-151.092 312.634,-137.76"/>
<polygon fill="black" stroke="black" points="316.121,-137.421 312.059,-127.636 309.132,-137.818 316.121,-137.421"/>
</g>
<!-- Note&#45;&gt;Pitch -->
<g id="edge27" class="edge"><title>Note&#45;&gt;Pitch</title>
<path fill="none" stroke="black" d="M351.217,-196.05C419.796,-193.685 568.442,-185.886 613,-162 624.636,-155.762 634.543,-145.18 642.075,-135.105"/>
<polygon fill="black" stroke="black" points="644.972,-137.069 647.829,-126.866 639.233,-133.061 644.972,-137.069"/>
</g>
<!-- MeasureIteratorTest -->
<g id="node27" class="node"><title>MeasureIteratorTest</title>
<ellipse fill="none" stroke="black" cx="382" cy="-419" rx="109.81" ry="18.3848"/>
<text text-anchor="middle" x="382" y="-415.4" font-family="Times Roman,serif" font-size="14.00">MeasureIteratorTest</text>
</g>
<!-- MeasureIteratorTest&#45;&gt;MeasureIterator -->
<g id="edge44" class="edge"><title>MeasureIteratorTest&#45;&gt;MeasureIterator</title>
<path fill="none" stroke="black" d="M367.869,-400.327C361.253,-391.584 353.255,-381.015 346.029,-371.467"/>
<polygon fill="black" stroke="black" points="348.758,-369.273 339.933,-363.411 343.176,-373.497 348.758,-369.273"/>
</g>
</g>
</svg>
