<?xml version="1.0" encoding="UTF-8" standalone="no"?>
<!DOCTYPE svg PUBLIC "-//W3C//DTD SVG 1.1//EN"
 "http://www.w3.org/Graphics/SVG/1.1/DTD/svg11.dtd">
<!-- Generated by graphviz version 2.26.3 (20100126.1600)
 -->
<!-- Title: Classes Pages: 1 -->
<svg width="733pt" height="716pt"
 viewBox="0.00 0.00 733.05 716.00" xmlns="http://www.w3.org/2000/svg" xmlns:xlink="http://www.w3.org/1999/xlink">
<g id="graph1" class="graph" transform="scale(1 1) rotate(0) translate(4 712)">
<title>Classes</title>
<polygon fill="white" stroke="white" points="-4,5 -4,-712 730.045,-712 730.045,5 -4,5"/>
<g id="graph2" class="cluster"><title>cluster_lexer</title>
<polygon fill="none" stroke="black" points="115,-318 115,-620 255,-620 255,-318 115,-318"/>
<text text-anchor="middle" x="185" y="-603.4" font-family="Times Roman,serif" font-size="14.00">lexer</text>
</g>
<g id="graph3" class="cluster"><title>cluster_utilities</title>
<polygon fill="none" stroke="black" points="8,-8 8,-162 370,-162 370,-8 8,-8"/>
<text text-anchor="middle" x="189" y="-145.4" font-family="Times Roman,serif" font-size="14.00">utilities</text>
</g>
<g id="graph4" class="cluster"><title>cluster_sound</title>
<polygon fill="none" stroke="black" points="378,-8 378,-162 702,-162 702,-8 378,-8"/>
<text text-anchor="middle" x="540" y="-145.4" font-family="Times Roman,serif" font-size="14.00">sound</text>
</g>
<g id="graph5" class="cluster"><title>cluster_player</title>
<polygon fill="none" stroke="black" points="263,-170 263,-700 663,-700 663,-170 263,-170"/>
<text text-anchor="middle" x="463" y="-683.4" font-family="Times Roman,serif" font-size="14.00">player</text>
</g>
<!-- Lexer -->
<g id="node2" class="node"><title>Lexer</title>
<ellipse fill="none" stroke="black" cx="188" cy="-493" rx="38.8909" ry="18.3848"/>
<text text-anchor="middle" x="188" y="-489.4" font-family="Times Roman,serif" font-size="14.00">Lexer</text>
</g>
<!-- Token -->
<g id="node4" class="node"><title>Token</title>
<ellipse fill="none" stroke="black" cx="186" cy="-419" rx="39.0967" ry="18.3848"/>
<text text-anchor="middle" x="186" y="-415.4" font-family="Times Roman,serif" font-size="14.00">Token</text>
</g>
<!-- Lexer&#45;&gt;Token -->
<g id="edge3" class="edge"><title>Lexer&#45;&gt;Token</title>
<path fill="none" stroke="black" d="M187.495,-474.327C187.277,-466.264 187.018,-456.648 186.776,-447.711"/>
<polygon fill="black" stroke="black" points="190.274,-447.569 186.505,-437.667 183.276,-447.758 190.274,-447.569"/>
</g>
<!-- TokenType -->
<g id="node5" class="node"><title>TokenType</title>
<ellipse fill="none" stroke="black" cx="185" cy="-345" rx="62.2254" ry="18.3848"/>
<text text-anchor="middle" x="185" y="-341.4" font-family="Times Roman,serif" font-size="14.00">TokenType</text>
</g>
<!-- Token&#45;&gt;TokenType -->
<g id="edge4" class="edge"><title>Token&#45;&gt;TokenType</title>
<path fill="none" stroke="black" d="M185.748,-400.327C185.639,-392.264 185.509,-382.648 185.388,-373.711"/>
<polygon fill="black" stroke="black" points="188.887,-373.619 185.252,-363.667 181.888,-373.714 188.887,-373.619"/>
</g>
<!-- LexerTest -->
<g id="node6" class="node"><title>LexerTest</title>
<ellipse fill="none" stroke="black" cx="188" cy="-567" rx="58.1882" ry="18.3848"/>
<text text-anchor="middle" x="188" y="-563.4" font-family="Times Roman,serif" font-size="14.00">LexerTest</text>
</g>
<!-- LexerTest&#45;&gt;Lexer -->
<g id="edge43" class="edge"><title>LexerTest&#45;&gt;Lexer</title>
<path fill="none" stroke="black" d="M188,-548.327C188,-540.264 188,-530.648 188,-521.711"/>
<polygon fill="black" stroke="black" points="191.5,-521.667 188,-511.667 184.5,-521.667 191.5,-521.667"/>
</g>
<!-- Fraction -->
<g id="node8" class="node"><title>Fraction</title>
<ellipse fill="none" stroke="black" cx="311" cy="-109" rx="50.9117" ry="18.3848"/>
<text text-anchor="middle" x="311" y="-105.4" font-family="Times Roman,serif" font-size="14.00">Fraction</text>
</g>
<!-- FractionValueException -->
<g id="node10" class="node"><title>FractionValueException</title>
<ellipse fill="none" stroke="black" cx="236" cy="-35" rx="125.865" ry="18.3848"/>
<text text-anchor="middle" x="236" y="-31.4" font-family="Times Roman,serif" font-size="14.00">FractionValueException</text>
</g>
<!-- Fraction&#45;&gt;FractionValueException -->
<g id="edge7" class="edge"><title>Fraction&#45;&gt;FractionValueException</title>
<path fill="none" stroke="black" d="M293.226,-91.463C283.884,-82.2459 272.26,-70.7761 261.932,-60.5865"/>
<polygon fill="black" stroke="black" points="264.27,-57.9758 254.693,-53.4437 259.353,-62.9587 264.27,-57.9758"/>
</g>
<!-- Pair&lt;Note,Fraction&gt; -->
<g id="node11" class="node"><title>Pair&lt;Note,Fraction&gt;</title>
<ellipse fill="none" stroke="black" cx="129" cy="-109" rx="113.137" ry="18.3848"/>
<text text-anchor="middle" x="129" y="-105.4" font-family="Times Roman,serif" font-size="14.00">Pair&lt;Note,Fraction&gt;</text>
</g>
<!-- Pitch -->
<g id="node13" class="node"><title>Pitch</title>
<ellipse fill="none" stroke="black" cx="658" cy="-109" rx="36.0624" ry="18.3848"/>
<text text-anchor="middle" x="658" y="-105.4" font-family="Times Roman,serif" font-size="14.00">Pitch</text>
</g>
<!-- SequencePlayer -->
<g id="node14" class="node"><title>SequencePlayer</title>
<ellipse fill="none" stroke="black" cx="549" cy="-35" rx="89.8026" ry="18.3848"/>
<text text-anchor="middle" x="549" y="-31.4" font-family="Times Roman,serif" font-size="14.00">SequencePlayer</text>
</g>
<!-- SequencePlayerTest -->
<g id="node15" class="node"><title>SequencePlayerTest</title>
<ellipse fill="none" stroke="black" cx="495" cy="-109" rx="109.101" ry="18.3848"/>
<text text-anchor="middle" x="495" y="-105.4" font-family="Times Roman,serif" font-size="14.00">SequencePlayerTest</text>
</g>
<!-- SequencePlayerTest&#45;&gt;SequencePlayer -->
<g id="edge47" class="edge"><title>SequencePlayerTest&#45;&gt;SequencePlayer</title>
<path fill="none" stroke="black" d="M508.626,-90.3267C514.942,-81.6725 522.563,-71.2286 529.475,-61.757"/>
<polygon fill="black" stroke="black" points="532.497,-63.5521 535.565,-53.411 526.843,-59.4258 532.497,-63.5521"/>
</g>
<!-- Parser -->
<g id="node17" class="node"><title>Parser</title>
<ellipse fill="none" stroke="black" cx="402" cy="-567" rx="41.9273" ry="18.3848"/>
<text text-anchor="middle" x="402" y="-563.4" font-family="Times Roman,serif" font-size="14.00">Parser</text>
</g>
<!-- Parser&#45;&gt;Lexer -->
<g id="edge32" class="edge"><title>Parser&#45;&gt;Lexer</title>
<path fill="none" stroke="black" d="M368.562,-555.438C330.987,-542.444 269.953,-521.339 229.397,-507.315"/>
<polygon fill="black" stroke="black" points="230.402,-503.959 219.807,-503.999 228.114,-510.575 230.402,-503.959"/>
</g>
<!-- Piece -->
<g id="node21" class="node"><title>Piece</title>
<ellipse fill="none" stroke="black" cx="505" cy="-493" rx="36.977" ry="18.3848"/>
<text text-anchor="middle" x="505" y="-489.4" font-family="Times Roman,serif" font-size="14.00">Piece</text>
</g>
<!-- Parser&#45;&gt;Piece -->
<g id="edge36" class="edge"><title>Parser&#45;&gt;Piece</title>
<path fill="none" stroke="black" d="M424.096,-551.125C439.096,-540.348 459.102,-525.975 475.466,-514.219"/>
<polygon fill="black" stroke="black" points="477.566,-517.019 483.646,-508.342 473.482,-511.334 477.566,-517.019"/>
</g>
<!-- CircleOfFifths -->
<g id="node22" class="node"><title>CircleOfFifths</title>
<ellipse fill="none" stroke="black" cx="374" cy="-493" rx="75.8684" ry="18.3848"/>
<text text-anchor="middle" x="374" y="-489.4" font-family="Times Roman,serif" font-size="14.00">CircleOfFifths</text>
</g>
<!-- Parser&#45;&gt;CircleOfFifths -->
<g id="edge34" class="edge"><title>Parser&#45;&gt;CircleOfFifths</title>
<path fill="none" stroke="black" d="M395.079,-548.708C391.939,-540.41 388.155,-530.409 384.664,-521.184"/>
<polygon fill="black" stroke="black" points="387.849,-519.71 381.036,-511.596 381.302,-522.187 387.849,-519.71"/>
</g>
<!-- Player -->
<g id="node18" class="node"><title>Player</title>
<ellipse fill="none" stroke="black" cx="467" cy="-647" rx="41.9273" ry="18.3848"/>
<text text-anchor="middle" x="467" y="-643.4" font-family="Times Roman,serif" font-size="14.00">Player</text>
</g>
<!-- Player&#45;&gt;Parser -->
<g id="edge38" class="edge"><title>Player&#45;&gt;Parser</title>
<path fill="none" stroke="black" d="M452.574,-629.245C443.762,-618.399 432.349,-604.353 422.596,-592.349"/>
<polygon fill="black" stroke="black" points="425.184,-589.984 416.162,-584.43 419.751,-594.398 425.184,-589.984"/>
</g>
<!-- PieceVisitor -->
<g id="node19" class="node"><title>PieceVisitor</title>
<ellipse fill="none" stroke="black" cx="559" cy="-567" rx="68.0887" ry="18.3848"/>
<text text-anchor="middle" x="559" y="-563.4" font-family="Times Roman,serif" font-size="14.00">PieceVisitor</text>
</g>
<!-- Player&#45;&gt;PieceVisitor -->
<g id="edge40" class="edge"><title>Player&#45;&gt;PieceVisitor</title>
<path fill="none" stroke="black" d="M486.062,-630.424C499.03,-619.148 516.406,-604.038 530.946,-591.395"/>
<polygon fill="black" stroke="black" points="533.436,-593.868 538.686,-584.665 528.843,-588.585 533.436,-593.868"/>
</g>
<!-- PieceVisitor&#45;&gt;SequencePlayer -->
<g id="edge41" class="edge"><title>PieceVisitor&#45;&gt;SequencePlayer</title>
<path fill="none" stroke="black" d="M598.043,-551.831C646.265,-530.235 722,-485.7 722,-419 722,-419 722,-419 722,-197 722,-148.701 734.18,-126.887 703,-90 691.231,-76.0775 652.514,-62.2822 616.848,-51.9903"/>
<polygon fill="black" stroke="black" points="617.469,-48.5289 606.894,-49.1831 615.569,-55.2661 617.469,-48.5289"/>
</g>
<!-- PieceVisitor&#45;&gt;Piece -->
<g id="edge11" class="edge"><title>PieceVisitor&#45;&gt;Piece</title>
<path fill="none" stroke="black" d="M545.652,-548.708C539.081,-539.704 531.047,-528.694 523.861,-518.847"/>
<polygon fill="black" stroke="black" points="526.545,-516.587 517.823,-510.572 520.89,-520.713 526.545,-516.587"/>
</g>
<!-- MeasureIterator -->
<g id="node24" class="node"><title>MeasureIterator</title>
<ellipse fill="none" stroke="black" cx="419" cy="-345" rx="90.0096" ry="18.3848"/>
<text text-anchor="middle" x="419" y="-341.4" font-family="Times Roman,serif" font-size="14.00">MeasureIterator</text>
</g>
<!-- PieceVisitor&#45;&gt;MeasureIterator -->
<g id="edge15" class="edge"><title>PieceVisitor&#45;&gt;MeasureIterator</title>
<path fill="none" stroke="black" d="M571.081,-548.726C591.219,-515.742 626.313,-445.467 593,-400 580.822,-383.379 536.1,-369.45 495.048,-359.767"/>
<polygon fill="black" stroke="black" points="495.793,-356.347 485.264,-357.521 494.227,-363.17 495.793,-356.347"/>
</g>
<!-- Voice -->
<g id="node23" class="node"><title>Voice</title>
<ellipse fill="none" stroke="black" cx="309" cy="-419" rx="36.977" ry="18.3848"/>
<text text-anchor="middle" x="309" y="-415.4" font-family="Times Roman,serif" font-size="14.00">Voice</text>
</g>
<!-- Piece&#45;&gt;Voice -->
<g id="edge22" class="edge"><title>Piece&#45;&gt;Voice</title>
<path fill="none" stroke="black" d="M476.393,-480.881C470.657,-478.537 464.655,-476.145 459,-474 413.265,-456.656 400.735,-455.344 355,-438 352.437,-437.028 349.804,-436.006 347.156,-434.96"/>
<polygon fill="black" stroke="black" points="348.19,-431.603 337.607,-431.119 345.578,-438.098 348.19,-431.603"/>
</g>
<!-- Voice&#45;&gt;MeasureIterator -->
<g id="edge20" class="edge"><title>Voice&#45;&gt;MeasureIterator</title>
<path fill="none" stroke="black" d="M331.26,-404.025C346.336,-393.883 366.571,-380.27 383.81,-368.674"/>
<polygon fill="black" stroke="black" points="386.164,-371.308 392.508,-362.822 382.257,-365.5 386.164,-371.308"/>
</g>
<!-- Measure -->
<g id="node25" class="node"><title>Measure</title>
<ellipse fill="none" stroke="black" cx="419" cy="-271" rx="53.033" ry="18.3848"/>
<text text-anchor="middle" x="419" y="-267.4" font-family="Times Roman,serif" font-size="14.00">Measure</text>
</g>
<!-- Voice&#45;&gt;Measure -->
<g id="edge23" class="edge"><title>Voice&#45;&gt;Measure</title>
<path fill="none" stroke="black" d="M305.963,-400.352C303.467,-378.53 302.728,-342.295 320,-318 330.929,-302.626 348.241,-292.111 365.353,-284.997"/>
<polygon fill="black" stroke="black" points="366.707,-288.227 374.797,-281.386 364.207,-281.689 366.707,-288.227"/>
</g>
<!-- MeasureIterator&#45;&gt;Measure -->
<g id="edge16" class="edge"><title>MeasureIterator&#45;&gt;Measure</title>
<path fill="none" stroke="black" d="M413.048,-326.327C412.277,-318.202 412.065,-308.501 412.411,-299.507"/>
<polygon fill="black" stroke="black" points="415.911,-299.619 413.073,-289.411 408.926,-299.16 415.911,-299.619"/>
</g>
<!-- Measure&#45;&gt;Pair&lt;Note,Fraction&gt; -->
<g id="edge26" class="edge"><title>Measure&#45;&gt;Pair&lt;Note,Fraction&gt;</title>
<path fill="none" stroke="black" d="M375.677,-260.134C343.171,-250.976 298.226,-236.132 262,-216 221.387,-193.431 180.635,-158.373 155.147,-134.589"/>
<polygon fill="black" stroke="black" points="157.417,-131.919 147.744,-127.596 152.61,-137.007 157.417,-131.919"/>
</g>
<!-- Measure&#45;&gt;MeasureIterator -->
<g id="edge18" class="edge"><title>Measure&#45;&gt;MeasureIterator</title>
<path fill="none" stroke="black" d="M424.927,-289.411C425.71,-297.501 425.934,-307.193 425.6,-316.202"/>
<polygon fill="black" stroke="black" points="422.098,-316.124 424.952,-326.327 429.084,-316.571 422.098,-316.124"/>
</g>
<!-- NoteOutOfBoundsException -->
<g id="node27" class="node"><title>NoteOutOfBoundsException</title>
<ellipse fill="none" stroke="black" cx="419" cy="-197" rx="147.992" ry="18.3848"/>
<text text-anchor="middle" x="419" y="-193.4" font-family="Times Roman,serif" font-size="14.00">NoteOutOfBoundsException</text>
</g>
<!-- Measure&#45;&gt;NoteOutOfBoundsException -->
<g id="edge13" class="edge"><title>Measure&#45;&gt;NoteOutOfBoundsException</title>
<path fill="none" stroke="black" d="M419,-252.327C419,-244.264 419,-234.648 419,-225.711"/>
<polygon fill="black" stroke="black" points="422.5,-225.667 419,-215.667 415.5,-225.667 422.5,-225.667"/>
</g>
<!-- Note -->
<g id="node28" class="node"><title>Note</title>
<ellipse fill="none" stroke="black" cx="620" cy="-197" rx="34.8574" ry="18.3848"/>
<text text-anchor="middle" x="620" y="-193.4" font-family="Times Roman,serif" font-size="14.00">Note</text>
</g>
<!-- Measure&#45;&gt;Note -->
<g id="edge24" class="edge"><title>Measure&#45;&gt;Note</title>
<path fill="none" stroke="black" d="M457.669,-258.303C489.619,-247.609 536.05,-231.601 576,-216 578.529,-215.013 581.127,-213.968 583.737,-212.897"/>
<polygon fill="black" stroke="black" points="585.263,-216.053 593.132,-208.959 582.557,-209.597 585.263,-216.053"/>
</g>
<!-- Note&#45;&gt;Fraction -->
<g id="edge30" class="edge"><title>Note&#45;&gt;Fraction</title>
<path fill="none" stroke="black" d="M600.011,-181.759C592.821,-177.109 584.404,-172.553 576,-170 533.016,-156.939 415.892,-178.224 374,-162 358.622,-156.044 344.309,-144.692 333.225,-134.017"/>
<polygon fill="black" stroke="black" points="335.615,-131.456 326.093,-126.809 330.639,-136.379 335.615,-131.456"/>
</g>
<!-- Note&#45;&gt;Pitch -->
<g id="edge28" class="edge"><title>Note&#45;&gt;Pitch</title>
<path fill="none" stroke="black" d="M627.874,-178.766C633.122,-166.613 640.118,-150.411 646.048,-136.679"/>
<polygon fill="black" stroke="black" points="649.385,-137.778 650.136,-127.21 642.959,-135.003 649.385,-137.778"/>
</g>
<!-- MeasureIteratorTest -->
<g id="node29" class="node"><title>MeasureIteratorTest</title>
<ellipse fill="none" stroke="black" cx="474" cy="-419" rx="109.81" ry="18.3848"/>
<text text-anchor="middle" x="474" y="-415.4" font-family="Times Roman,serif" font-size="14.00">MeasureIteratorTest</text>
</g>
<!-- MeasureIteratorTest&#45;&gt;MeasureIterator -->
<g id="edge45" class="edge"><title>MeasureIteratorTest&#45;&gt;MeasureIterator</title>
<path fill="none" stroke="black" d="M460.121,-400.327C453.623,-391.584 445.768,-381.015 438.672,-371.467"/>
<polygon fill="black" stroke="black" points="441.458,-369.349 432.684,-363.411 435.84,-373.525 441.458,-369.349"/>
</g>
</g>
</svg>
