<?xml version="1.0" encoding="UTF-8" standalone="no"?>
<!DOCTYPE svg PUBLIC "-//W3C//DTD SVG 1.1//EN"
 "http://www.w3.org/Graphics/SVG/1.1/DTD/svg11.dtd">
<!-- Generated by graphviz version 2.26.3 (20100126.1600)
 -->
<!-- Title: Classes Pages: 1 -->
<svg width="847pt" height="796pt"
 viewBox="0.00 0.00 847.05 796.00" xmlns="http://www.w3.org/2000/svg" xmlns:xlink="http://www.w3.org/1999/xlink">
<g id="graph1" class="graph" transform="scale(1 1) rotate(0) translate(4 792)">
<title>Classes</title>
<polygon fill="white" stroke="white" points="-4,5 -4,-792 844.045,-792 844.045,5 -4,5"/>
<g id="graph2" class="cluster"><title>cluster_lexer</title>
<polygon fill="none" stroke="black" points="268,-324 268,-626 408,-626 408,-324 268,-324"/>
<text text-anchor="middle" x="338" y="-609.4" font-family="Times Roman,serif" font-size="14.00">lexer</text>
</g>
<g id="graph3" class="cluster"><title>cluster_utilities</title>
<polygon fill="none" stroke="black" points="8,-8 8,-250 408,-250 408,-8 8,-8"/>
<text text-anchor="middle" x="208" y="-233.4" font-family="Times Roman,serif" font-size="14.00">utilities</text>
</g>
<g id="graph4" class="cluster"><title>cluster_sound</title>
<polygon fill="none" stroke="black" points="492,-8 492,-162 816,-162 816,-8 492,-8"/>
<text text-anchor="middle" x="654" y="-145.4" font-family="Times Roman,serif" font-size="14.00">sound</text>
</g>
<g id="graph5" class="cluster"><title>cluster_player</title>
<polygon fill="none" stroke="black" points="416,-170 416,-780 816,-780 816,-170 416,-170"/>
<text text-anchor="middle" x="616" y="-763.4" font-family="Times Roman,serif" font-size="14.00">player</text>
</g>
<!-- Lexer -->
<g id="node2" class="node"><title>Lexer</title>
<ellipse fill="none" stroke="black" cx="341" cy="-499" rx="38.8909" ry="18.3848"/>
<text text-anchor="middle" x="341" y="-495.4" font-family="Times Roman,serif" font-size="14.00">Lexer</text>
</g>
<!-- Token -->
<g id="node4" class="node"><title>Token</title>
<ellipse fill="none" stroke="black" cx="339" cy="-425" rx="39.0967" ry="18.3848"/>
<text text-anchor="middle" x="339" y="-421.4" font-family="Times Roman,serif" font-size="14.00">Token</text>
</g>
<!-- Lexer&#45;&gt;Token -->
<g id="edge3" class="edge"><title>Lexer&#45;&gt;Token</title>
<path fill="none" stroke="black" d="M340.495,-480.327C340.277,-472.264 340.018,-462.648 339.776,-453.711"/>
<polygon fill="black" stroke="black" points="343.274,-453.569 339.505,-443.667 336.276,-453.758 343.274,-453.569"/>
</g>
<!-- TokenType -->
<g id="node5" class="node"><title>TokenType</title>
<ellipse fill="none" stroke="black" cx="338" cy="-351" rx="62.2254" ry="18.3848"/>
<text text-anchor="middle" x="338" y="-347.4" font-family="Times Roman,serif" font-size="14.00">TokenType</text>
</g>
<!-- Token&#45;&gt;TokenType -->
<g id="edge4" class="edge"><title>Token&#45;&gt;TokenType</title>
<path fill="none" stroke="black" d="M338.748,-406.327C338.639,-398.264 338.509,-388.648 338.388,-379.711"/>
<polygon fill="black" stroke="black" points="341.887,-379.619 338.252,-369.667 334.888,-379.714 341.887,-379.619"/>
</g>
<!-- LexerTest -->
<g id="node6" class="node"><title>LexerTest</title>
<ellipse fill="none" stroke="black" cx="341" cy="-573" rx="58.1882" ry="18.3848"/>
<text text-anchor="middle" x="341" y="-569.4" font-family="Times Roman,serif" font-size="14.00">LexerTest</text>
</g>
<!-- LexerTest&#45;&gt;Lexer -->
<g id="edge46" class="edge"><title>LexerTest&#45;&gt;Lexer</title>
<path fill="none" stroke="black" d="M341,-554.327C341,-546.264 341,-536.648 341,-527.711"/>
<polygon fill="black" stroke="black" points="344.5,-527.667 341,-517.667 337.5,-527.667 344.5,-527.667"/>
</g>
<!-- FractionTest -->
<g id="node8" class="node"><title>FractionTest</title>
<ellipse fill="none" stroke="black" cx="330" cy="-197" rx="70.2092" ry="18.3848"/>
<text text-anchor="middle" x="330" y="-193.4" font-family="Times Roman,serif" font-size="14.00">FractionTest</text>
</g>
<!-- Fraction -->
<g id="node10" class="node"><title>Fraction</title>
<ellipse fill="none" stroke="black" cx="330" cy="-109" rx="50.9117" ry="18.3848"/>
<text text-anchor="middle" x="330" y="-105.4" font-family="Times Roman,serif" font-size="14.00">Fraction</text>
</g>
<!-- FractionTest&#45;&gt;Fraction -->
<g id="edge7" class="edge"><title>FractionTest&#45;&gt;Fraction</title>
<path fill="none" stroke="black" d="M330,-178.337C330,-166.554 330,-151.092 330,-137.76"/>
<polygon fill="black" stroke="black" points="333.5,-137.636 330,-127.636 326.5,-137.636 333.5,-137.636"/>
</g>
<!-- FractionValueException -->
<g id="node11" class="node"><title>FractionValueException</title>
<ellipse fill="none" stroke="black" cx="274" cy="-35" rx="125.865" ry="18.3848"/>
<text text-anchor="middle" x="274" y="-31.4" font-family="Times Roman,serif" font-size="14.00">FractionValueException</text>
</g>
<!-- Fraction&#45;&gt;FractionValueException -->
<g id="edge8" class="edge"><title>Fraction&#45;&gt;FractionValueException</title>
<path fill="none" stroke="black" d="M316.444,-91.0867C309.784,-82.2865 301.624,-71.5026 294.243,-61.7502"/>
<polygon fill="black" stroke="black" points="296.841,-59.3832 288.016,-53.5212 291.26,-63.6073 296.841,-59.3832"/>
</g>
<!-- Pair&lt;Note,Fraction&gt; -->
<g id="node12" class="node"><title>Pair&lt;Note,Fraction&gt;</title>
<ellipse fill="none" stroke="black" cx="129" cy="-197" rx="113.137" ry="18.3848"/>
<text text-anchor="middle" x="129" y="-193.4" font-family="Times Roman,serif" font-size="14.00">Pair&lt;Note,Fraction&gt;</text>
</g>
<!-- Pitch -->
<g id="node14" class="node"><title>Pitch</title>
<ellipse fill="none" stroke="black" cx="772" cy="-109" rx="36.0624" ry="18.3848"/>
<text text-anchor="middle" x="772" y="-105.4" font-family="Times Roman,serif" font-size="14.00">Pitch</text>
</g>
<!-- SequencePlayer -->
<g id="node15" class="node"><title>SequencePlayer</title>
<ellipse fill="none" stroke="black" cx="663" cy="-35" rx="89.8026" ry="18.3848"/>
<text text-anchor="middle" x="663" y="-31.4" font-family="Times Roman,serif" font-size="14.00">SequencePlayer</text>
</g>
<!-- SequencePlayerTest -->
<g id="node16" class="node"><title>SequencePlayerTest</title>
<ellipse fill="none" stroke="black" cx="609" cy="-109" rx="109.101" ry="18.3848"/>
<text text-anchor="middle" x="609" y="-105.4" font-family="Times Roman,serif" font-size="14.00">SequencePlayerTest</text>
</g>
<!-- SequencePlayerTest&#45;&gt;SequencePlayer -->
<g id="edge50" class="edge"><title>SequencePlayerTest&#45;&gt;SequencePlayer</title>
<path fill="none" stroke="black" d="M622.626,-90.3267C628.942,-81.6725 636.563,-71.2286 643.475,-61.757"/>
<polygon fill="black" stroke="black" points="646.497,-63.5521 649.565,-53.411 640.843,-59.4258 646.497,-63.5521"/>
</g>
<!-- Parser -->
<g id="node18" class="node"><title>Parser</title>
<ellipse fill="none" stroke="black" cx="555" cy="-573" rx="41.9273" ry="18.3848"/>
<text text-anchor="middle" x="555" y="-569.4" font-family="Times Roman,serif" font-size="14.00">Parser</text>
</g>
<!-- Parser&#45;&gt;Lexer -->
<g id="edge35" class="edge"><title>Parser&#45;&gt;Lexer</title>
<path fill="none" stroke="black" d="M521.562,-561.438C483.987,-548.444 422.953,-527.339 382.397,-513.315"/>
<polygon fill="black" stroke="black" points="383.402,-509.959 372.807,-509.999 381.114,-516.575 383.402,-509.959"/>
</g>
<!-- Piece -->
<g id="node24" class="node"><title>Piece</title>
<ellipse fill="none" stroke="black" cx="658" cy="-499" rx="36.977" ry="18.3848"/>
<text text-anchor="middle" x="658" y="-495.4" font-family="Times Roman,serif" font-size="14.00">Piece</text>
</g>
<!-- Parser&#45;&gt;Piece -->
<g id="edge39" class="edge"><title>Parser&#45;&gt;Piece</title>
<path fill="none" stroke="black" d="M577.096,-557.125C592.096,-546.348 612.102,-531.975 628.466,-520.219"/>
<polygon fill="black" stroke="black" points="630.566,-523.019 636.646,-514.342 626.482,-517.334 630.566,-523.019"/>
</g>
<!-- CircleOfFifths -->
<g id="node25" class="node"><title>CircleOfFifths</title>
<ellipse fill="none" stroke="black" cx="527" cy="-499" rx="75.8684" ry="18.3848"/>
<text text-anchor="middle" x="527" y="-495.4" font-family="Times Roman,serif" font-size="14.00">CircleOfFifths</text>
</g>
<!-- Parser&#45;&gt;CircleOfFifths -->
<g id="edge37" class="edge"><title>Parser&#45;&gt;CircleOfFifths</title>
<path fill="none" stroke="black" d="M548.079,-554.708C544.939,-546.41 541.155,-536.409 537.664,-527.184"/>
<polygon fill="black" stroke="black" points="540.849,-525.71 534.036,-517.596 534.302,-528.187 540.849,-525.71"/>
</g>
<!-- Main -->
<g id="node19" class="node"><title>Main</title>
<ellipse fill="none" stroke="black" cx="620" cy="-727" rx="34.8574" ry="18.3848"/>
<text text-anchor="middle" x="620" y="-723.4" font-family="Times Roman,serif" font-size="14.00">Main</text>
</g>
<!-- Player -->
<g id="node21" class="node"><title>Player</title>
<ellipse fill="none" stroke="black" cx="620" cy="-653" rx="41.9273" ry="18.3848"/>
<text text-anchor="middle" x="620" y="-649.4" font-family="Times Roman,serif" font-size="14.00">Player</text>
</g>
<!-- Main&#45;&gt;Player -->
<g id="edge12" class="edge"><title>Main&#45;&gt;Player</title>
<path fill="none" stroke="black" d="M620,-708.327C620,-700.264 620,-690.648 620,-681.711"/>
<polygon fill="black" stroke="black" points="623.5,-681.667 620,-671.667 616.5,-681.667 623.5,-681.667"/>
</g>
<!-- Player&#45;&gt;Parser -->
<g id="edge41" class="edge"><title>Player&#45;&gt;Parser</title>
<path fill="none" stroke="black" d="M605.574,-635.245C596.762,-624.399 585.349,-610.353 575.596,-598.349"/>
<polygon fill="black" stroke="black" points="578.184,-595.984 569.162,-590.43 572.751,-600.398 578.184,-595.984"/>
</g>
<!-- PieceVisitor -->
<g id="node22" class="node"><title>PieceVisitor</title>
<ellipse fill="none" stroke="black" cx="712" cy="-573" rx="68.0887" ry="18.3848"/>
<text text-anchor="middle" x="712" y="-569.4" font-family="Times Roman,serif" font-size="14.00">PieceVisitor</text>
</g>
<!-- Player&#45;&gt;PieceVisitor -->
<g id="edge43" class="edge"><title>Player&#45;&gt;PieceVisitor</title>
<path fill="none" stroke="black" d="M639.062,-636.424C652.03,-625.148 669.406,-610.038 683.946,-597.395"/>
<polygon fill="black" stroke="black" points="686.436,-599.868 691.686,-590.665 681.843,-594.585 686.436,-599.868"/>
</g>
<!-- PieceVisitor&#45;&gt;SequencePlayer -->
<g id="edge44" class="edge"><title>PieceVisitor&#45;&gt;SequencePlayer</title>
<path fill="none" stroke="black" d="M740.448,-556.163C777.057,-532.098 836,-484.164 836,-425 836,-425 836,-425 836,-197 836,-148.701 848.18,-126.887 817,-90 805.231,-76.0775 766.514,-62.2822 730.848,-51.9903"/>
<polygon fill="black" stroke="black" points="731.469,-48.5289 720.894,-49.1831 729.569,-55.2661 731.469,-48.5289"/>
</g>
<!-- PieceVisitor&#45;&gt;Piece -->
<g id="edge14" class="edge"><title>PieceVisitor&#45;&gt;Piece</title>
<path fill="none" stroke="black" d="M698.652,-554.708C692.081,-545.704 684.047,-534.694 676.861,-524.847"/>
<polygon fill="black" stroke="black" points="679.545,-522.587 670.823,-516.572 673.89,-526.713 679.545,-522.587"/>
</g>
<!-- MeasureIterator -->
<g id="node27" class="node"><title>MeasureIterator</title>
<ellipse fill="none" stroke="black" cx="572" cy="-351" rx="90.0096" ry="18.3848"/>
<text text-anchor="middle" x="572" y="-347.4" font-family="Times Roman,serif" font-size="14.00">MeasureIterator</text>
</g>
<!-- PieceVisitor&#45;&gt;MeasureIterator -->
<g id="edge18" class="edge"><title>PieceVisitor&#45;&gt;MeasureIterator</title>
<path fill="none" stroke="black" d="M724.081,-554.726C744.219,-521.742 779.313,-451.467 746,-406 733.822,-389.379 689.1,-375.45 648.048,-365.767"/>
<polygon fill="black" stroke="black" points="648.793,-362.347 638.264,-363.521 647.227,-369.17 648.793,-362.347"/>
</g>
<!-- Voice -->
<g id="node26" class="node"><title>Voice</title>
<ellipse fill="none" stroke="black" cx="462" cy="-425" rx="36.977" ry="18.3848"/>
<text text-anchor="middle" x="462" y="-421.4" font-family="Times Roman,serif" font-size="14.00">Voice</text>
</g>
<!-- Piece&#45;&gt;Voice -->
<g id="edge25" class="edge"><title>Piece&#45;&gt;Voice</title>
<path fill="none" stroke="black" d="M629.393,-486.881C623.657,-484.537 617.655,-482.145 612,-480 566.265,-462.656 553.735,-461.344 508,-444 505.437,-443.028 502.804,-442.006 500.156,-440.96"/>
<polygon fill="black" stroke="black" points="501.19,-437.603 490.607,-437.119 498.578,-444.098 501.19,-437.603"/>
</g>
<!-- Voice&#45;&gt;MeasureIterator -->
<g id="edge23" class="edge"><title>Voice&#45;&gt;MeasureIterator</title>
<path fill="none" stroke="black" d="M484.26,-410.025C499.336,-399.883 519.571,-386.27 536.81,-374.674"/>
<polygon fill="black" stroke="black" points="539.164,-377.308 545.508,-368.822 535.257,-371.5 539.164,-377.308"/>
</g>
<!-- Measure -->
<g id="node28" class="node"><title>Measure</title>
<ellipse fill="none" stroke="black" cx="572" cy="-277" rx="53.033" ry="18.3848"/>
<text text-anchor="middle" x="572" y="-273.4" font-family="Times Roman,serif" font-size="14.00">Measure</text>
</g>
<!-- Voice&#45;&gt;Measure -->
<g id="edge26" class="edge"><title>Voice&#45;&gt;Measure</title>
<path fill="none" stroke="black" d="M458.963,-406.352C456.467,-384.53 455.728,-348.295 473,-324 483.929,-308.626 501.241,-298.111 518.353,-290.997"/>
<polygon fill="black" stroke="black" points="519.707,-294.227 527.797,-287.386 517.207,-287.689 519.707,-294.227"/>
</g>
<!-- MeasureIterator&#45;&gt;Measure -->
<g id="edge19" class="edge"><title>MeasureIterator&#45;&gt;Measure</title>
<path fill="none" stroke="black" d="M566.048,-332.327C565.277,-324.202 565.065,-314.501 565.411,-305.507"/>
<polygon fill="black" stroke="black" points="568.911,-305.619 566.073,-295.411 561.926,-305.16 568.911,-305.619"/>
</g>
<!-- Measure&#45;&gt;Pair&lt;Note,Fraction&gt; -->
<g id="edge29" class="edge"><title>Measure&#45;&gt;Pair&lt;Note,Fraction&gt;</title>
<path fill="none" stroke="black" d="M519.411,-274.654C441.774,-270.837 300.35,-262.437 251,-250 223.348,-243.031 193.986,-230.454 170.998,-219.3"/>
<polygon fill="black" stroke="black" points="172.395,-216.086 161.88,-214.789 169.291,-222.36 172.395,-216.086"/>
</g>
<!-- Measure&#45;&gt;MeasureIterator -->
<g id="edge21" class="edge"><title>Measure&#45;&gt;MeasureIterator</title>
<path fill="none" stroke="black" d="M577.927,-295.411C578.71,-303.501 578.934,-313.193 578.6,-322.202"/>
<polygon fill="black" stroke="black" points="575.098,-322.124 577.952,-332.327 582.084,-322.571 575.098,-322.124"/>
</g>
<!-- NoteOutOfBoundsException -->
<g id="node30" class="node"><title>NoteOutOfBoundsException</title>
<ellipse fill="none" stroke="black" cx="572" cy="-197" rx="147.992" ry="18.3848"/>
<text text-anchor="middle" x="572" y="-193.4" font-family="Times Roman,serif" font-size="14.00">NoteOutOfBoundsException</text>
</g>
<!-- Measure&#45;&gt;NoteOutOfBoundsException -->
<g id="edge16" class="edge"><title>Measure&#45;&gt;NoteOutOfBoundsException</title>
<path fill="none" stroke="black" d="M572,-258.445C572,-248.821 572,-236.846 572,-226.03"/>
<polygon fill="black" stroke="black" points="575.5,-225.731 572,-215.731 568.5,-225.731 575.5,-225.731"/>
</g>
<!-- Note -->
<g id="node31" class="node"><title>Note</title>
<ellipse fill="none" stroke="black" cx="773" cy="-197" rx="34.8574" ry="18.3848"/>
<text text-anchor="middle" x="773" y="-193.4" font-family="Times Roman,serif" font-size="14.00">Note</text>
</g>
<!-- Measure&#45;&gt;Note -->
<g id="edge27" class="edge"><title>Measure&#45;&gt;Note</title>
<path fill="none" stroke="black" d="M623.184,-272.062C661.911,-267.616 711.341,-260.208 729,-250 740.131,-243.566 749.673,-233.189 756.997,-223.315"/>
<polygon fill="black" stroke="black" points="760.025,-225.091 762.847,-214.879 754.272,-221.102 760.025,-225.091"/>
</g>
<!-- Note&#45;&gt;Fraction -->
<g id="edge33" class="edge"><title>Note&#45;&gt;Fraction</title>
<path fill="none" stroke="black" d="M753.02,-181.728C745.831,-177.075 737.412,-172.527 729,-170 677.68,-154.586 540.734,-171.51 488,-162 447.617,-154.718 403.484,-139.237 372.151,-126.877"/>
<polygon fill="black" stroke="black" points="373.441,-123.623 362.856,-123.154 370.838,-130.121 373.441,-123.623"/>
</g>
<!-- Note&#45;&gt;Pitch -->
<g id="edge31" class="edge"><title>Note&#45;&gt;Pitch</title>
<path fill="none" stroke="black" d="M772.788,-178.337C772.654,-166.554 772.478,-151.092 772.327,-137.76"/>
<polygon fill="black" stroke="black" points="775.825,-137.595 772.212,-127.636 768.826,-137.675 775.825,-137.595"/>
</g>
<!-- MeasureIteratorTest -->
<g id="node32" class="node"><title>MeasureIteratorTest</title>
<ellipse fill="none" stroke="black" cx="627" cy="-425" rx="109.81" ry="18.3848"/>
<text text-anchor="middle" x="627" y="-421.4" font-family="Times Roman,serif" font-size="14.00">MeasureIteratorTest</text>
</g>
<!-- MeasureIteratorTest&#45;&gt;MeasureIterator -->
<g id="edge48" class="edge"><title>MeasureIteratorTest&#45;&gt;MeasureIterator</title>
<path fill="none" stroke="black" d="M613.121,-406.327C606.623,-397.584 598.768,-387.015 591.672,-377.467"/>
<polygon fill="black" stroke="black" points="594.458,-375.349 585.684,-369.411 588.84,-379.525 594.458,-375.349"/>
</g>
</g>
</svg>
