<?xml version="1.0" encoding="UTF-8" standalone="no"?>
<!DOCTYPE svg PUBLIC "-//W3C//DTD SVG 1.1//EN"
 "http://www.w3.org/Graphics/SVG/1.1/DTD/svg11.dtd">
<!-- Generated by graphviz version 2.26.3 (20100126.1600)
 -->
<!-- Title: Classes Pages: 1 -->
<svg width="680pt" height="716pt"
 viewBox="0.00 0.00 680.00 716.00" xmlns="http://www.w3.org/2000/svg" xmlns:xlink="http://www.w3.org/1999/xlink">
<g id="graph1" class="graph" transform="scale(1 1) rotate(0) translate(4 712)">
<title>Classes</title>
<polygon fill="white" stroke="white" points="-4,5 -4,-712 677,-712 677,5 -4,5"/>
<g id="graph2" class="cluster"><title>cluster_lexer</title>
<polygon fill="none" stroke="black" points="24,-318 24,-620 164,-620 164,-318 24,-318"/>
<text text-anchor="middle" x="94" y="-603.4" font-family="Times Roman,serif" font-size="14.00">lexer</text>
</g>
<g id="graph3" class="cluster"><title>cluster_utilities</title>
<polygon fill="none" stroke="black" points="8,-8 8,-162 370,-162 370,-8 8,-8"/>
<text text-anchor="middle" x="189" y="-145.4" font-family="Times Roman,serif" font-size="14.00">utilities</text>
</g>
<g id="graph4" class="cluster"><title>cluster_sound</title>
<polygon fill="none" stroke="black" points="378,-82 378,-162 664,-162 664,-82 378,-82"/>
<text text-anchor="middle" x="521" y="-145.4" font-family="Times Roman,serif" font-size="14.00">sound</text>
</g>
<g id="graph5" class="cluster"><title>cluster_player</title>
<polygon fill="none" stroke="black" points="172,-170 172,-700 520,-700 520,-170 172,-170"/>
<text text-anchor="middle" x="346" y="-683.4" font-family="Times Roman,serif" font-size="14.00">player</text>
</g>
<!-- Lexer -->
<g id="node2" class="node"><title>Lexer</title>
<ellipse fill="none" stroke="black" cx="97" cy="-493" rx="38.8909" ry="18.3848"/>
<text text-anchor="middle" x="97" y="-489.4" font-family="Times Roman,serif" font-size="14.00">Lexer</text>
</g>
<!-- Token -->
<g id="node3" class="node"><title>Token</title>
<ellipse fill="none" stroke="black" cx="95" cy="-419" rx="39.0967" ry="18.3848"/>
<text text-anchor="middle" x="95" y="-415.4" font-family="Times Roman,serif" font-size="14.00">Token</text>
</g>
<!-- Lexer&#45;&gt;Token -->
<g id="edge7" class="edge"><title>Lexer&#45;&gt;Token</title>
<path fill="none" stroke="black" d="M96.4953,-474.327C96.2774,-466.264 96.0175,-456.648 95.776,-447.711"/>
<polygon fill="black" stroke="black" points="99.2735,-447.569 95.5045,-437.667 92.2761,-447.758 99.2735,-447.569"/>
</g>
<!-- TokenType -->
<g id="node4" class="node"><title>TokenType</title>
<ellipse fill="none" stroke="black" cx="94" cy="-345" rx="62.2254" ry="18.3848"/>
<text text-anchor="middle" x="94" y="-341.4" font-family="Times Roman,serif" font-size="14.00">TokenType</text>
</g>
<!-- Token&#45;&gt;TokenType -->
<g id="edge8" class="edge"><title>Token&#45;&gt;TokenType</title>
<path fill="none" stroke="black" d="M94.7477,-400.327C94.6387,-392.264 94.5088,-382.648 94.388,-373.711"/>
<polygon fill="black" stroke="black" points="97.8872,-373.619 94.2523,-363.667 90.8878,-373.714 97.8872,-373.619"/>
</g>
<!-- LexerTest -->
<g id="node5" class="node"><title>LexerTest</title>
<ellipse fill="none" stroke="black" cx="97" cy="-567" rx="58.1882" ry="18.3848"/>
<text text-anchor="middle" x="97" y="-563.4" font-family="Times Roman,serif" font-size="14.00">LexerTest</text>
</g>
<!-- LexerTest&#45;&gt;Lexer -->
<g id="edge39" class="edge"><title>LexerTest&#45;&gt;Lexer</title>
<path fill="none" stroke="black" d="M97,-548.327C97,-540.264 97,-530.648 97,-521.711"/>
<polygon fill="black" stroke="black" points="100.5,-521.667 97,-511.667 93.5001,-521.667 100.5,-521.667"/>
</g>
<!-- Fraction -->
<g id="node7" class="node"><title>Fraction</title>
<ellipse fill="none" stroke="black" cx="311" cy="-109" rx="50.9117" ry="18.3848"/>
<text text-anchor="middle" x="311" y="-105.4" font-family="Times Roman,serif" font-size="14.00">Fraction</text>
</g>
<!-- FractionValueException -->
<g id="node8" class="node"><title>FractionValueException</title>
<ellipse fill="none" stroke="black" cx="236" cy="-35" rx="125.865" ry="18.3848"/>
<text text-anchor="middle" x="236" y="-31.4" font-family="Times Roman,serif" font-size="14.00">FractionValueException</text>
</g>
<!-- Fraction&#45;&gt;FractionValueException -->
<g id="edge32" class="edge"><title>Fraction&#45;&gt;FractionValueException</title>
<path fill="none" stroke="black" d="M293.226,-91.463C283.884,-82.2459 272.26,-70.7761 261.932,-60.5865"/>
<polygon fill="black" stroke="black" points="264.27,-57.9758 254.693,-53.4437 259.353,-62.9587 264.27,-57.9758"/>
</g>
<!-- Pair&lt;Note,Fraction&gt; -->
<g id="node9" class="node"><title>Pair&lt;Note,Fraction&gt;</title>
<ellipse fill="none" stroke="black" cx="129" cy="-109" rx="113.137" ry="18.3848"/>
<text text-anchor="middle" x="129" y="-105.4" font-family="Times Roman,serif" font-size="14.00">Pair&lt;Note,Fraction&gt;</text>
</g>
<!-- Pitch -->
<g id="node11" class="node"><title>Pitch</title>
<ellipse fill="none" stroke="black" cx="422" cy="-109" rx="36.0624" ry="18.3848"/>
<text text-anchor="middle" x="422" y="-105.4" font-family="Times Roman,serif" font-size="14.00">Pitch</text>
</g>
<!-- SequencePlayer -->
<g id="node12" class="node"><title>SequencePlayer</title>
<ellipse fill="none" stroke="black" cx="566" cy="-109" rx="89.8026" ry="18.3848"/>
<text text-anchor="middle" x="566" y="-105.4" font-family="Times Roman,serif" font-size="14.00">SequencePlayer</text>
</g>
<!-- Parser -->
<g id="node14" class="node"><title>Parser</title>
<ellipse fill="none" stroke="black" cx="285" cy="-567" rx="41.9273" ry="18.3848"/>
<text text-anchor="middle" x="285" y="-563.4" font-family="Times Roman,serif" font-size="14.00">Parser</text>
</g>
<!-- Parser&#45;&gt;Lexer -->
<g id="edge6" class="edge"><title>Parser&#45;&gt;Lexer</title>
<path fill="none" stroke="black" d="M253.533,-554.614C221.334,-541.94 171.219,-522.214 136.401,-508.509"/>
<polygon fill="black" stroke="black" points="137.601,-505.22 127.014,-504.814 135.037,-511.734 137.601,-505.22"/>
</g>
<!-- Piece -->
<g id="node17" class="node"><title>Piece</title>
<ellipse fill="none" stroke="black" cx="401" cy="-493" rx="36.977" ry="18.3848"/>
<text text-anchor="middle" x="401" y="-489.4" font-family="Times Roman,serif" font-size="14.00">Piece</text>
</g>
<!-- Parser&#45;&gt;Piece -->
<g id="edge12" class="edge"><title>Parser&#45;&gt;Piece</title>
<path fill="none" stroke="black" d="M309.035,-551.667C326.451,-540.557 350.175,-525.423 369.165,-513.309"/>
<polygon fill="black" stroke="black" points="371.239,-516.137 377.787,-507.808 367.474,-510.236 371.239,-516.137"/>
</g>
<!-- CircleOfFifths -->
<g id="node18" class="node"><title>CircleOfFifths</title>
<ellipse fill="none" stroke="black" cx="270" cy="-493" rx="75.8684" ry="18.3848"/>
<text text-anchor="middle" x="270" y="-489.4" font-family="Times Roman,serif" font-size="14.00">CircleOfFifths</text>
</g>
<!-- Parser&#45;&gt;CircleOfFifths -->
<g id="edge10" class="edge"><title>Parser&#45;&gt;CircleOfFifths</title>
<path fill="none" stroke="black" d="M281.215,-548.327C279.581,-540.264 277.631,-530.648 275.82,-521.711"/>
<polygon fill="black" stroke="black" points="279.201,-520.773 273.784,-511.667 272.34,-522.163 279.201,-520.773"/>
</g>
<!-- Player -->
<g id="node15" class="node"><title>Player</title>
<ellipse fill="none" stroke="black" cx="350" cy="-647" rx="41.9273" ry="18.3848"/>
<text text-anchor="middle" x="350" y="-643.4" font-family="Times Roman,serif" font-size="14.00">Player</text>
</g>
<!-- Player&#45;&gt;Parser -->
<g id="edge34" class="edge"><title>Player&#45;&gt;Parser</title>
<path fill="none" stroke="black" d="M335.574,-629.245C326.762,-618.399 315.349,-604.353 305.596,-592.349"/>
<polygon fill="black" stroke="black" points="308.184,-589.984 299.162,-584.43 302.751,-594.398 308.184,-589.984"/>
</g>
<!-- PieceVisitor -->
<g id="node16" class="node"><title>PieceVisitor</title>
<ellipse fill="none" stroke="black" cx="429" cy="-567" rx="68.0887" ry="18.3848"/>
<text text-anchor="middle" x="429" y="-563.4" font-family="Times Roman,serif" font-size="14.00">PieceVisitor</text>
</g>
<!-- Player&#45;&gt;PieceVisitor -->
<g id="edge36" class="edge"><title>Player&#45;&gt;PieceVisitor</title>
<path fill="none" stroke="black" d="M366.754,-630.034C377.556,-619.095 391.801,-604.67 403.938,-592.379"/>
<polygon fill="black" stroke="black" points="406.636,-594.628 411.172,-585.053 401.655,-589.709 406.636,-594.628"/>
</g>
<!-- PieceVisitor&#45;&gt;SequencePlayer -->
<g id="edge37" class="edge"><title>PieceVisitor&#45;&gt;SequencePlayer</title>
<path fill="none" stroke="black" d="M459.383,-550.367C498.082,-526.699 560,-479.393 560,-419 560,-419 560,-419 560,-271 560,-224.474 562.502,-170.483 564.275,-138.07"/>
<polygon fill="black" stroke="black" points="567.777,-138.127 564.843,-127.946 560.788,-137.734 567.777,-138.127"/>
</g>
<!-- PieceVisitor&#45;&gt;Piece -->
<g id="edge14" class="edge"><title>PieceVisitor&#45;&gt;Piece</title>
<path fill="none" stroke="black" d="M421.934,-548.327C418.794,-540.026 415.03,-530.078 411.565,-520.921"/>
<polygon fill="black" stroke="black" points="414.779,-519.525 407.966,-511.411 408.232,-522.003 414.779,-519.525"/>
</g>
<!-- MeasureIterator -->
<g id="node20" class="node"><title>MeasureIterator</title>
<ellipse fill="none" stroke="black" cx="326" cy="-345" rx="90.0096" ry="18.3848"/>
<text text-anchor="middle" x="326" y="-341.4" font-family="Times Roman,serif" font-size="14.00">MeasureIterator</text>
</g>
<!-- PieceVisitor&#45;&gt;MeasureIterator -->
<g id="edge16" class="edge"><title>PieceVisitor&#45;&gt;MeasureIterator</title>
<path fill="none" stroke="black" d="M447.967,-549.067C479.641,-516.927 536.494,-448.361 501,-400 488.745,-383.302 443.765,-369.374 402.479,-359.711"/>
<polygon fill="black" stroke="black" points="403.167,-356.278 392.64,-357.47 401.613,-363.104 403.167,-356.278"/>
</g>
<!-- Voice -->
<g id="node19" class="node"><title>Voice</title>
<ellipse fill="none" stroke="black" cx="217" cy="-419" rx="36.977" ry="18.3848"/>
<text text-anchor="middle" x="217" y="-415.4" font-family="Times Roman,serif" font-size="14.00">Voice</text>
</g>
<!-- Piece&#45;&gt;Voice -->
<g id="edge23" class="edge"><title>Piece&#45;&gt;Voice</title>
<path fill="none" stroke="black" d="M372.324,-481.059C366.594,-478.7 360.612,-476.257 355,-474 314.263,-457.618 303.737,-454.382 263,-438 260.457,-436.977 257.838,-435.917 255.201,-434.843"/>
<polygon fill="black" stroke="black" points="256.256,-431.493 245.676,-430.941 253.603,-437.97 256.256,-431.493"/>
</g>
<!-- Voice&#45;&gt;MeasureIterator -->
<g id="edge21" class="edge"><title>Voice&#45;&gt;MeasureIterator</title>
<path fill="none" stroke="black" d="M239.058,-404.025C253.996,-393.883 274.048,-380.27 291.13,-368.674"/>
<polygon fill="black" stroke="black" points="293.441,-371.335 299.749,-362.822 289.509,-365.543 293.441,-371.335"/>
</g>
<!-- Measure -->
<g id="node21" class="node"><title>Measure</title>
<ellipse fill="none" stroke="black" cx="316" cy="-271" rx="53.033" ry="18.3848"/>
<text text-anchor="middle" x="316" y="-267.4" font-family="Times Roman,serif" font-size="14.00">Measure</text>
</g>
<!-- Voice&#45;&gt;Measure -->
<g id="edge24" class="edge"><title>Voice&#45;&gt;Measure</title>
<path fill="none" stroke="black" d="M213.924,-400.497C211.351,-378.814 210.388,-342.714 227,-318 236.283,-304.189 250.976,-294.15 265.77,-286.986"/>
<polygon fill="black" stroke="black" points="267.241,-290.163 274.946,-282.89 264.388,-283.77 267.241,-290.163"/>
</g>
<!-- MeasureIterator&#45;&gt;Measure -->
<g id="edge17" class="edge"><title>MeasureIterator&#45;&gt;Measure</title>
<path fill="none" stroke="black" d="M317.524,-326.327C315.67,-318.264 314.156,-308.648 313.283,-299.711"/>
<polygon fill="black" stroke="black" points="316.769,-299.395 312.571,-289.667 309.787,-299.89 316.769,-299.395"/>
</g>
<!-- Measure&#45;&gt;Pair&lt;Note,Fraction&gt; -->
<g id="edge27" class="edge"><title>Measure&#45;&gt;Pair&lt;Note,Fraction&gt;</title>
<path fill="none" stroke="black" d="M295.988,-253.663C262.737,-224.858 195.992,-167.036 157.721,-133.881"/>
<polygon fill="black" stroke="black" points="159.859,-131.102 150.009,-127.2 155.275,-136.393 159.859,-131.102"/>
</g>
<!-- Measure&#45;&gt;MeasureIterator -->
<g id="edge19" class="edge"><title>Measure&#45;&gt;MeasureIterator</title>
<path fill="none" stroke="black" d="M324.415,-289.411C326.291,-297.501 327.825,-307.193 328.709,-316.202"/>
<polygon fill="black" stroke="black" points="325.228,-316.6 329.429,-326.327 332.21,-316.104 325.228,-316.6"/>
</g>
<!-- Note -->
<g id="node22" class="node"><title>Note</title>
<ellipse fill="none" stroke="black" cx="316" cy="-197" rx="34.8574" ry="18.3848"/>
<text text-anchor="middle" x="316" y="-193.4" font-family="Times Roman,serif" font-size="14.00">Note</text>
</g>
<!-- Measure&#45;&gt;Note -->
<g id="edge25" class="edge"><title>Measure&#45;&gt;Note</title>
<path fill="none" stroke="black" d="M316,-252.327C316,-244.264 316,-234.648 316,-225.711"/>
<polygon fill="black" stroke="black" points="319.5,-225.667 316,-215.667 312.5,-225.667 319.5,-225.667"/>
</g>
<!-- Note&#45;&gt;Fraction -->
<g id="edge31" class="edge"><title>Note&#45;&gt;Fraction</title>
<path fill="none" stroke="black" d="M314.94,-178.337C314.27,-166.554 313.392,-151.092 312.634,-137.76"/>
<polygon fill="black" stroke="black" points="316.121,-137.421 312.059,-127.636 309.132,-137.818 316.121,-137.421"/>
</g>
<!-- Note&#45;&gt;Pitch -->
<g id="edge29" class="edge"><title>Note&#45;&gt;Pitch</title>
<path fill="none" stroke="black" d="M341.045,-184.021C351.68,-177.981 363.923,-170.299 374,-162 383.932,-153.821 393.689,-143.578 401.785,-134.282"/>
<polygon fill="black" stroke="black" points="404.642,-136.326 408.435,-126.433 399.301,-131.801 404.642,-136.326"/>
</g>
<!-- MeasureIteratorTest -->
<g id="node23" class="node"><title>MeasureIteratorTest</title>
<ellipse fill="none" stroke="black" cx="382" cy="-419" rx="109.81" ry="18.3848"/>
<text text-anchor="middle" x="382" y="-415.4" font-family="Times Roman,serif" font-size="14.00">MeasureIteratorTest</text>
</g>
<!-- MeasureIteratorTest&#45;&gt;MeasureIterator -->
<g id="edge41" class="edge"><title>MeasureIteratorTest&#45;&gt;MeasureIterator</title>
<path fill="none" stroke="black" d="M367.869,-400.327C361.253,-391.584 353.255,-381.015 346.029,-371.467"/>
<polygon fill="black" stroke="black" points="348.758,-369.273 339.933,-363.411 343.176,-373.497 348.758,-369.273"/>
</g>
</g>
</svg>
