<?xml version="1.0" encoding="UTF-8" standalone="no"?>
<!DOCTYPE svg PUBLIC "-//W3C//DTD SVG 1.1//EN"
 "http://www.w3.org/Graphics/SVG/1.1/DTD/svg11.dtd">
<!-- Generated by graphviz version 2.26.3 (20100126.1600)
 -->
<!-- Title: MeasureExample Pages: 1 -->
<svg width="762pt" height="144pt"
 viewBox="0.00 0.00 762.00 144.00" xmlns="http://www.w3.org/2000/svg" xmlns:xlink="http://www.w3.org/1999/xlink">
<g id="graph1" class="graph" transform="scale(1 1) rotate(0) translate(4 140)">
<title>MeasureExample</title>
<polygon fill="white" stroke="white" points="-4,5 -4,-140 759,-140 759,5 -4,5"/>
<text text-anchor="middle" x="377" y="-119.4" font-family="Times Roman,serif" font-size="14.00">Linked Representation of &quot;M0 |: M1 | M2 | M3 :| M4 |: M5 | [1 M6 :|[2 M7 | M8 |]&quot;</text>
<!-- M0 -->
<g id="node1" class="node"><title>M0</title>
<text text-anchor="middle" x="27" y="-55.4" font-family="Times Roman,serif" font-size="14.00">M0</text>
</g>
<!-- M1 -->
<g id="node2" class="node"><title>M1</title>
<text text-anchor="middle" x="127" y="-55.4" font-family="Times Roman,serif" font-size="14.00">M1</text>
</g>
<!-- M0&#45;&gt;M1 -->
<g id="edge2" class="edge"><title>M0&#45;&gt;M1</title>
<path fill="none" stroke="black" d="M54.0614,-59C65.0669,-59 77.9653,-59 89.83,-59"/>
<polygon fill="black" stroke="black" points="89.917,-62.5001 99.9169,-59 89.9169,-55.5001 89.917,-62.5001"/>
<text text-anchor="middle" x="77" y="-64.4" font-family="Times Roman,serif" font-size="14.00">1</text>
</g>
<!-- M2 -->
<g id="node3" class="node"><title>M2</title>
<text text-anchor="middle" x="227" y="-88.4" font-family="Times Roman,serif" font-size="14.00">M2</text>
</g>
<!-- M1&#45;&gt;M2 -->
<g id="edge4" class="edge"><title>M1&#45;&gt;M2</title>
<path fill="none" stroke="black" d="M154.061,-67.9303C165.178,-71.5988 178.226,-75.9046 190.189,-79.8525"/>
<polygon fill="black" stroke="black" points="189.324,-83.2524 199.917,-83.0626 191.517,-76.605 189.324,-83.2524"/>
<text text-anchor="middle" x="177" y="-81.4" font-family="Times Roman,serif" font-size="14.00">1</text>
</g>
<!-- M3 -->
<g id="node4" class="node"><title>M3</title>
<text text-anchor="middle" x="327" y="-55.4" font-family="Times Roman,serif" font-size="14.00">M3</text>
</g>
<!-- M2&#45;&gt;M3 -->
<g id="edge6" class="edge"><title>M2&#45;&gt;M3</title>
<path fill="none" stroke="black" d="M254.061,-83.0697C265.178,-79.4012 278.226,-75.0954 290.189,-71.1475"/>
<polygon fill="black" stroke="black" points="291.517,-74.395 299.917,-67.9374 289.324,-67.7476 291.517,-74.395"/>
<text text-anchor="middle" x="277" y="-81.4" font-family="Times Roman,serif" font-size="14.00">1</text>
</g>
<!-- M3&#45;&gt;M1 -->
<g id="edge8" class="edge"><title>M3&#45;&gt;M1</title>
<path fill="none" stroke="black" d="M299.745,-53.4368C286.078,-50.9241 269.233,-48.2437 254,-47 230.08,-45.047 223.92,-45.047 200,-47 188.337,-47.9522 175.729,-49.7466 164.327,-51.6631"/>
<polygon fill="black" stroke="black" points="163.497,-48.2553 154.255,-53.4368 164.711,-55.1492 163.497,-48.2553"/>
<text text-anchor="middle" x="227" y="-52.4" font-family="Times Roman,serif" font-size="14.00">1</text>
</g>
<!-- M4 -->
<g id="node5" class="node"><title>M4</title>
<text text-anchor="middle" x="427" y="-55.4" font-family="Times Roman,serif" font-size="14.00">M4</text>
</g>
<!-- M3&#45;&gt;M4 -->
<g id="edge10" class="edge"><title>M3&#45;&gt;M4</title>
<path fill="none" stroke="black" d="M354.061,-59C365.067,-59 377.965,-59 389.83,-59"/>
<polygon fill="black" stroke="black" points="389.917,-62.5001 399.917,-59 389.917,-55.5001 389.917,-62.5001"/>
<text text-anchor="middle" x="377" y="-64.4" font-family="Times Roman,serif" font-size="14.00">2</text>
</g>
<!-- M5 -->
<g id="node6" class="node"><title>M5</title>
<text text-anchor="middle" x="527" y="-55.4" font-family="Times Roman,serif" font-size="14.00">M5</text>
</g>
<!-- M4&#45;&gt;M5 -->
<g id="edge12" class="edge"><title>M4&#45;&gt;M5</title>
<path fill="none" stroke="black" d="M454.061,-59C465.067,-59 477.965,-59 489.83,-59"/>
<polygon fill="black" stroke="black" points="489.917,-62.5001 499.917,-59 489.917,-55.5001 489.917,-62.5001"/>
<text text-anchor="middle" x="477" y="-64.4" font-family="Times Roman,serif" font-size="14.00">1</text>
</g>
<!-- M6 -->
<g id="node7" class="node"><title>M6</title>
<text text-anchor="middle" x="627" y="-82.4" font-family="Times Roman,serif" font-size="14.00">M6</text>
</g>
<!-- M5&#45;&gt;M6 -->
<g id="edge14" class="edge"><title>M5&#45;&gt;M6</title>
<path fill="none" stroke="black" d="M554.209,-71.7945C559.986,-74.1392 566.119,-76.3597 572,-78 577.716,-79.5941 583.86,-80.8841 589.896,-81.9239"/>
<polygon fill="black" stroke="black" points="589.444,-85.3954 599.859,-83.4474 590.503,-78.4759 589.444,-85.3954"/>
<text text-anchor="middle" x="577" y="-85.4" font-family="Times Roman,serif" font-size="14.00">1</text>
</g>
<!-- M7 -->
<g id="node8" class="node"><title>M7</title>
<text text-anchor="middle" x="627" y="-14.4" font-family="Times Roman,serif" font-size="14.00">M7</text>
</g>
<!-- M5&#45;&gt;M7 -->
<g id="edge16" class="edge"><title>M5&#45;&gt;M7</title>
<path fill="none" stroke="black" d="M554.423,-40.8373C560.081,-37.5835 566.113,-34.4532 572,-32 577.652,-29.6448 583.8,-27.6081 589.872,-25.8741"/>
<polygon fill="black" stroke="black" points="591.131,-29.1623 599.915,-23.2387 589.354,-22.3915 591.131,-29.1623"/>
<text text-anchor="middle" x="577" y="-37.4" font-family="Times Roman,serif" font-size="14.00">2</text>
</g>
<!-- M6&#45;&gt;M5 -->
<g id="edge18" class="edge"><title>M6&#45;&gt;M5</title>
<path fill="none" stroke="black" d="M605.437,-67.9207C598.405,-63.0818 590.268,-58.5032 582,-56 576.313,-54.278 570.146,-53.5687 564.067,-53.482"/>
<polygon fill="black" stroke="black" points="563.884,-49.9863 554.021,-53.855 564.144,-56.9815 563.884,-49.9863"/>
<text text-anchor="middle" x="577" y="-61.4" font-family="Times Roman,serif" font-size="14.00">1</text>
</g>
<!-- M8 -->
<g id="node9" class="node"><title>M8</title>
<text text-anchor="middle" x="727" y="-14.4" font-family="Times Roman,serif" font-size="14.00">M8</text>
</g>
<!-- M7&#45;&gt;M8 -->
<g id="edge20" class="edge"><title>M7&#45;&gt;M8</title>
<path fill="none" stroke="black" d="M654.061,-18C665.067,-18 677.965,-18 689.83,-18"/>
<polygon fill="black" stroke="black" points="689.917,-21.5001 699.917,-18 689.917,-14.5001 689.917,-21.5001"/>
<text text-anchor="middle" x="677" y="-23.4" font-family="Times Roman,serif" font-size="14.00">1</text>
</g>
</g>
</svg>
